<?xml version="1.0" standalone="no"?>
<!DOCTYPE svg PUBLIC "-//W3C//DTD SVG 20010904//EN"
 "http://www.w3.org/TR/2001/REC-SVG-20010904/DTD/svg10.dtd">
<svg version="1.0" xmlns="http://www.w3.org/2000/svg"
 width="338.000000pt" height="338.000000pt" viewBox="0 0 338.000000 338.000000"
 preserveAspectRatio="xMidYMid meet">
<metadata>
Created by potrace 1.14, written by Peter Selinger 2001-2017
</metadata>
<g transform="translate(0.000000,338.000000) scale(0.100000,-0.100000)"
fill="#000000" stroke="none">
<path d="M1410 3198 c-13 -18 -32 -39 -42 -46 -10 -7 -18 -19 -18 -26 0 -8
-10 -11 -29 -8 -23 3 -33 -2 -46 -22 -17 -25 -17 -28 0 -46 15 -16 15 -20 3
-20 -8 0 -35 -24 -61 -54 l-46 -54 67 -59 c143 -127 136 -122 159 -110 21 12
62 58 79 89 8 15 21 7 97 -59 48 -41 86 -80 85 -85 -2 -5 -33 -47 -68 -93 -42
-54 -70 -83 -79 -79 -8 2 -45 10 -83 16 -52 9 -73 9 -87 1 -15 -9 -23 -9 -37
2 -29 22 -73 19 -82 -6 l-8 -20 -18 20 c-23 25 -39 26 -60 6 -13 -14 -18 -13
-40 10 -14 14 -34 25 -44 25 -21 0 -36 25 -26 41 3 5 12 9 20 9 16 0 18 12 4
26 -7 7 -4 18 10 34 11 13 20 29 20 36 0 16 -31 34 -59 34 -14 0 -19 5 -15 15
4 8 -1 17 -10 21 -12 5 -14 10 -6 19 8 10 8 15 0 20 -8 5 -5 14 8 29 20 21 42
59 42 71 0 4 -12 4 -26 1 -24 -6 -23 -3 20 50 49 60 55 74 31 74 -14 0 -13 3
1 25 16 24 16 25 -7 25 -62 -1 -157 -70 -236 -172 -51 -66 -143 -241 -143
-273 0 -11 -9 -38 -20 -60 l-19 -40 6 48 c6 45 -10 119 -29 142 -13 15 -9 34
14 65 26 36 16 52 -34 55 -18 1 -80 6 -138 10 -128 9 -145 3 -237 -92 -63 -64
-71 -77 -53 -88 5 -3 7 -12 4 -19 -3 -7 11 -30 30 -51 20 -21 36 -42 36 -47 0
-18 46 -31 69 -19 12 7 21 8 21 2 0 -10 -15 -16 -71 -25 -97 -17 -178 -129
-165 -230 17 -134 22 -162 29 -173 5 -8 3 -13 -3 -13 -8 0 -9 -10 -5 -29 5
-24 3 -29 -12 -27 -28 2 -27 -33 1 -55 25 -20 26 -22 20 -122 -5 -97 0 -137
30 -222 4 -11 0 -8 -8 7 -10 16 -30 31 -51 37 -38 10 -86 2 -92 -16 -3 -7 4
-9 18 -6 30 8 49 -20 49 -73 0 -24 5 -46 10 -49 6 -4 7 -11 4 -17 -4 -5 -2
-20 4 -31 25 -56 31 -77 22 -77 -6 0 -15 -11 -21 -24 -24 -51 41 -110 100 -91
11 3 22 1 26 -4 3 -6 20 -8 38 -5 l32 6 -24 -20 -24 -20 21 -11 c11 -6 32 -11
47 -11 22 0 24 -3 15 -19 -20 -39 -9 -101 18 -101 23 0 72 -50 72 -74 0 -18 1
-18 25 4 14 13 25 31 25 41 0 35 95 114 124 103 8 -3 17 -1 21 5 3 6 13 11 21
11 10 0 5 -12 -17 -39 -27 -32 -36 -37 -50 -28 -24 15 -73 -7 -65 -29 4 -10
-7 -27 -29 -48 l-34 -33 22 -34 c13 -19 24 -53 25 -79 2 -24 8 -47 14 -51 15
-10 77 -3 92 11 10 8 15 6 19 -9 3 -12 13 -19 28 -18 13 0 31 -3 39 -7 11 -4
19 3 29 26 8 18 14 39 14 45 0 7 3 10 8 7 28 -17 60 66 32 84 -6 5 -4 20 7 44
14 32 17 34 27 20 9 -14 14 -15 32 -4 19 11 21 10 21 -8 0 -14 7 -20 21 -20
24 0 72 -46 64 -61 -10 -15 22 -10 35 7 8 8 16 31 19 50 5 31 7 33 18 16 9
-15 8 -25 -2 -46 -12 -23 -12 -28 0 -33 8 -3 15 -11 15 -18 0 -10 -7 -11 -28
-5 -119 34 -262 -79 -262 -207 l0 -37 -33 32 c-63 61 -149 61 -209 2 -34 -35
-36 -52 -5 -45 15 4 32 -1 49 -14 30 -24 58 -27 77 -8 11 10 12 8 7 -10 -6
-19 -2 -23 30 -29 l37 -7 -26 -14 c-29 -15 -36 -33 -12 -33 21 0 19 -4 -15
-38 -33 -34 -38 -63 -14 -86 21 -21 24 -20 21 6 -1 16 2 22 13 19 8 -2 29 -6
45 -9 17 -2 38 -11 48 -20 15 -13 21 -13 42 -2 21 11 34 10 93 -10 l68 -23
-23 -23 c-24 -24 -33 -61 -11 -48 6 4 4 -3 -5 -17 -25 -34 -21 -81 8 -113 33
-35 45 -33 38 7 -5 31 -2 35 32 51 20 10 39 24 42 32 4 11 9 12 18 4 10 -8 18
-5 31 12 11 13 27 22 37 20 29 -6 48 16 34 38 -9 16 -7 23 12 44 18 19 26 22
36 13 8 -8 10 -18 4 -29 -15 -27 -11 -71 5 -65 9 4 16 -4 20 -23 6 -32 57 -73
64 -52 2 7 13 10 27 6 28 -7 61 9 75 37 17 30 -13 73 -46 66 -14 -2 -27 -1
-29 4 -7 11 15 109 25 109 11 0 20 -26 20 -56 0 -30 18 -67 29 -60 4 3 13 -12
19 -33 13 -41 45 -77 61 -67 6 4 17 -7 26 -23 8 -16 25 -37 37 -45 19 -14 23
-14 34 2 11 16 14 16 33 -2 12 -11 21 -27 21 -38 0 -23 34 -58 57 -58 13 0 14
3 5 12 -17 17 -15 57 3 64 8 4 13 10 10 14 -3 4 2 10 10 14 18 7 65 -38 65
-62 0 -10 -5 -23 -12 -30 -9 -9 -9 -12 0 -12 20 0 52 38 52 63 0 12 11 30 25
40 22 16 25 16 33 0 9 -15 12 -15 34 -1 14 9 31 31 38 48 7 18 16 27 20 21 9
-16 47 27 65 74 l15 40 -6 -37 c-7 -45 23 -81 64 -77 15 2 33 0 40 -5 20 -12
62 21 69 55 4 20 10 28 19 25 17 -7 19 36 3 66 -14 27 -5 34 27 19 22 -10 25
-16 20 -41 -6 -31 15 -52 42 -43 8 3 21 -5 29 -17 10 -14 22 -20 34 -17 11 3
19 1 19 -3 0 -4 17 -17 38 -28 31 -17 37 -24 36 -51 -2 -37 9 -39 41 -6 18 17
25 35 25 64 0 22 -4 42 -9 45 -5 3 -7 15 -4 25 3 12 -4 28 -19 43 l-23 23 55
22 c58 24 100 30 100 13 0 -14 26 -12 42 3 7 8 25 16 38 20 14 3 36 9 49 13
20 6 22 4 16 -15 -7 -23 4 -28 23 -9 28 28 -1 107 -40 108 -7 1 -3 6 10 14 19
10 21 15 10 23 -7 6 -19 12 -27 15 -9 2 -2 9 18 18 19 8 30 18 27 26 -4 10 2
12 24 8 21 -5 37 0 57 15 18 15 35 20 50 16 59 -14 -12 67 -72 84 -51 14 -103
0 -144 -38 l-31 -29 0 29 c0 40 -25 98 -58 132 -53 56 -150 89 -204 68 -21 -8
-27 -7 -32 5 -3 8 1 14 9 14 18 0 19 4 1 38 -12 24 -12 30 0 47 13 18 14 18
14 -7 0 -26 34 -78 51 -78 5 0 9 8 9 19 0 20 39 51 65 51 8 0 15 9 15 20 0 17
3 19 19 8 15 -9 23 -9 34 0 12 10 17 7 27 -17 7 -17 8 -36 4 -43 -21 -33 -15
-58 16 -71 17 -8 28 -16 24 -20 -3 -3 -1 -12 5 -19 7 -7 18 -22 25 -32 9 -14
18 -17 32 -11 10 4 27 7 37 6 9 -1 20 5 23 14 4 10 10 12 18 6 6 -5 31 -8 56
-8 41 2 45 4 46 27 0 14 4 31 8 38 4 7 3 18 -2 25 -7 9 -2 23 17 49 16 21 31
35 35 31 3 -3 6 3 6 14 0 21 35 59 72 77 26 13 37 78 17 102 -9 11 -8 14 7 14
11 0 35 8 54 18 22 12 48 17 70 15 26 -3 43 1 63 17 40 31 34 76 -12 107 -19
13 -29 23 -22 23 18 0 63 49 56 61 -4 5 -2 16 4 23 6 8 14 44 17 82 6 78 17
98 51 89 32 -8 29 13 -4 26 -19 8 -40 8 -65 2 l-37 -10 6 58 c3 32 1 78 -6
102 -13 53 0 103 30 112 26 9 22 51 -4 48 -15 -1 -18 4 -14 23 2 14 0 27 -5
30 -5 3 -6 15 -2 27 4 12 8 33 10 47 1 14 7 57 12 95 8 60 7 77 -10 123 -26
69 -109 132 -176 132 -16 0 -35 7 -42 15 -15 18 -7 19 18 4 22 -14 72 4 72 26
0 8 4 15 9 15 16 0 49 54 56 92 6 33 3 39 -42 86 -26 27 -67 62 -91 77 -46 30
-26 30 -291 10 -49 -4 -57 -18 -32 -58 l21 -34 -21 -48 c-17 -39 -20 -61 -16
-112 4 -58 4 -62 -9 -39 -7 15 -20 54 -29 88 -8 34 -22 69 -29 78 -7 8 -23 37
-35 65 -33 75 -125 191 -191 239 -78 58 -171 77 -125 26 16 -18 16 -20 2 -20
-25 0 -21 -11 23 -70 22 -29 40 -55 40 -56 0 -1 -9 0 -20 3 -29 8 -25 -16 10
-59 18 -22 25 -38 19 -40 -9 -3 -9 -10 0 -26 9 -18 9 -22 -1 -20 -7 2 -12 -5
-12 -14 1 -12 -5 -18 -18 -18 -54 0 -75 -42 -38 -75 14 -13 17 -22 10 -29 -15
-15 -12 -23 9 -29 25 -6 17 -47 -10 -47 -10 0 -30 -11 -46 -24 -25 -22 -29
-22 -49 -9 -18 11 -27 12 -43 3 -12 -6 -21 -16 -22 -23 0 -7 -4 -2 -9 11 -11
26 -54 30 -86 8 -13 -10 -25 -11 -35 -5 -8 5 -23 9 -33 9 -17 0 -40 17 -164
127 l-44 38 62 80 c34 44 68 89 76 99 13 20 14 20 36 -1 79 -71 177 -53 219
42 19 43 17 73 -10 114 -8 13 -16 41 -16 62 -2 67 -77 126 -144 115 -44 -8
-55 -8 -106 0 -54 8 -103 -25 -129 -88 -18 -45 -18 -46 0 -84 11 -22 33 -48
50 -59 l30 -20 -69 -97 -70 -97 -31 26 c-17 14 -55 48 -84 75 l-53 50 46 49
c50 54 56 79 23 102 -13 8 -38 30 -56 48 -18 18 -43 33 -55 34 -13 1 -23 9
-25 21 -4 20 -29 44 -47 44 -6 0 -22 -15 -35 -32z m51 -1 c-1 -12 -15 -9 -19
4 -3 6 1 10 8 8 6 -3 11 -8 11 -12z m-11 -62 c19 -19 32 -35 29 -35 -3 0 -20
16 -39 35 -19 19 -32 35 -29 35 3 0 20 -16 39 -35z m530 29 c0 -8 -19 -13 -24
-6 -3 5 1 9 9 9 8 0 15 -2 15 -3z m-495 -14 c4 -6 16 -10 27 -8 12 2 23 -3 26
-11 3 -10 -2 -11 -19 -6 -30 9 -68 35 -52 35 7 0 15 -5 18 -10z m457 -17 c22
-20 23 -51 1 -75 -20 -22 -41 -23 -65 -1 -22 20 -23 51 -1 75 20 22 41 23 65
1z m122 11 c23 -9 20 -34 -4 -34 -13 0 -20 7 -20 20 0 22 1 23 24 14z m-508
-172 c-10 -10 -188 147 -180 160 3 5 46 -28 95 -73 49 -45 87 -84 85 -87z m15
125 c-13 -13 -26 -3 -16 12 3 6 11 8 17 5 6 -4 6 -10 -1 -17z m844 -55 c102
-96 56 -75 -68 30 l-32 28 30 -10 c17 -6 48 -27 70 -48z m-1385 27 c-142 -112
-161 -121 -75 -33 35 35 64 53 85 53 10 0 7 -6 -10 -20z m295 5 c0 -11 135
-134 408 -374 97 -85 174 -156 171 -159 -2 -3 -26 16 -52 41 -26 24 -161 145
-299 267 -227 199 -280 252 -240 239 6 -3 12 -9 12 -14z m230 -33 c-3 -3 -18
8 -33 23 l-27 29 32 -23 c18 -13 30 -26 28 -29z m69 7 c-3 -5 -12 -4 -20 3 -7
6 -11 15 -8 21 3 5 12 4 20 -3 7 -6 11 -15 8 -21z m522 -9 c3 -6 -5 -3 -20 6
-14 10 -26 19 -26 22 0 7 39 -17 46 -28z m-1097 -6 c-8 -10 -24 -28 -36 -40
-13 -12 -23 -26 -23 -30 -1 -4 -28 -35 -61 -68 -54 -54 -58 -57 -42 -25 9 19
19 44 20 55 5 26 59 82 103 105 44 24 56 25 39 3z m901 2 c-7 -8 -17 -15 -23
-15 -6 0 -2 7 9 15 25 19 30 19 14 0z m36 -12 c-10 -10 -19 5 -10 18 6 11 8
11 12 0 2 -7 1 -15 -2 -18z m439 -35 c25 -22 44 -43 41 -45 -7 -7 15 -65 33
-88 8 -11 -5 -2 -29 20 -25 22 -46 43 -48 48 -2 4 -10 14 -18 21 -8 8 -14 18
-14 21 0 4 -11 16 -25 27 -14 11 -30 28 -35 38 -9 18 -8 18 19 9 17 -6 51 -29
76 -51z m-340 46 c25 -10 37 -51 23 -77 -7 -12 -11 -25 -10 -29 2 -9 -57 9
-74 23 -22 18 -17 45 12 68 30 24 27 23 49 15z m-756 -68 c25 -23 64 -60 86
-81 l40 -37 -50 40 c-75 60 -141 121 -131 122 4 0 29 -20 55 -44z m658 -59
c17 -20 17 -21 0 -8 -10 8 -26 30 -35 48 l-18 33 -88 -115 c-49 -63 -91 -115
-93 -115 -7 0 7 20 69 103 33 42 57 81 54 86 -6 9 31 46 54 53 10 3 19 -7 26
-29 7 -19 20 -44 31 -56z m-749 30 c8 -9 6 -16 -8 -25 -21 -13 -33 -2 -24 22
7 19 18 20 32 3z m77 -17 c10 -11 16 -20 13 -20 -3 0 -13 9 -23 20 -10 11 -16
20 -13 20 3 0 13 -9 23 -20z m-305 -10 c0 -5 -23 -33 -50 -62 -28 -29 -46 -54
-40 -56 6 -2 19 2 29 9 9 8 4 2 -13 -13 -17 -16 -34 -28 -39 -28 -5 0 -7 -6
-4 -14 3 -8 -1 -17 -9 -20 -29 -11 -37 -6 -22 12 8 9 22 31 30 49 16 31 16 32
-5 20 -12 -7 -27 -19 -34 -27 -7 -8 -12 -10 -13 -5 0 6 26 35 58 66 70 69 112
95 112 69z m1420 -21 c29 -21 93 -87 105 -108 5 -8 -7 -3 -27 12 -38 29 -53
34 -42 15 7 -14 -72 65 -96 96 -14 18 -13 18 10 11 14 -4 36 -16 50 -26z
m-1131 -2 c19 -21 20 -25 6 -37 -12 -10 -16 -9 -21 4 -3 9 -12 16 -20 16 -16
0 -16 2 -8 24 8 22 17 20 43 -7z m-493 -26 c-9 -16 -19 -48 -22 -72 -4 -24
-14 -60 -22 -79 -9 -19 -16 -53 -17 -75 -1 -22 -13 -64 -27 -93 -18 -38 -21
-52 -11 -48 9 4 7 -3 -7 -21 -14 -18 -17 -29 -9 -33 7 -5 -2 -17 -23 -34 -18
-14 -27 -26 -20 -26 7 0 10 -4 7 -10 -3 -5 -1 -10 5 -10 6 0 8 -4 5 -10 -3 -5
-15 -10 -26 -10 -11 0 -18 -4 -15 -9 3 -5 -4 -11 -17 -15 -18 -5 -20 -8 -7
-16 13 -8 13 -10 -1 -10 -26 0 -30 12 -9 27 25 17 27 38 3 28 -28 -11 -53 -14
-53 -8 0 12 33 43 46 43 19 0 73 49 90 81 8 16 12 29 9 29 -3 0 4 24 15 53 11
28 23 77 26 107 8 73 70 240 89 240 3 0 -1 -13 -9 -29z m-451 -12 c-4 -5 -1
-9 5 -9 6 0 13 7 16 15 8 20 45 19 70 -1 10 -8 13 -13 7 -9 -8 3 -13 0 -13 -8
0 -8 6 -17 14 -20 21 -8 35 -70 26 -112 -5 -20 -4 -35 1 -35 13 0 31 51 26 72
-4 14 -2 16 13 8 20 -11 33 -37 24 -51 -3 -5 -10 -7 -15 -3 -6 3 -10 0 -8 -7
3 -27 -1 -40 -11 -34 -7 4 -8 -3 -4 -22 7 -25 6 -27 -10 -14 -14 12 -18 12
-31 -5 -8 -10 -15 -23 -15 -27 0 -4 -6 -2 -14 5 -12 11 -12 16 4 33 25 28 16
42 -26 37 -28 -3 -35 -1 -32 9 3 8 -6 25 -18 38 -22 23 -22 26 -7 43 9 10 18
16 21 13 3 -3 11 0 18 6 9 7 14 5 19 -10 7 -24 25 -28 25 -6 0 18 -31 35 -65
35 -22 0 -25 3 -20 21 8 23 -3 20 -38 -9 -29 -25 -32 -4 -3 23 15 14 21 25 14
25 -10 0 -9 3 2 9 16 11 33 4 25 -10z m2258 -59 c15 -36 31 -95 36 -131 5 -37
14 -75 19 -85 5 -11 13 -37 17 -59 9 -52 62 -124 97 -131 29 -7 65 -40 55 -50
-3 -4 -20 -2 -36 4 -35 12 -41 0 -11 -21 20 -14 17 -27 -6 -27 -8 0 -11 6 -8
15 4 9 0 15 -10 15 -9 0 -16 4 -16 9 0 5 -10 11 -22 15 -13 3 -19 9 -13 13 19
15 15 35 -11 55 -17 14 -22 23 -14 28 8 5 2 18 -17 41 -15 19 -20 28 -10 20
17 -14 24 -3 8 14 -10 12 -34 82 -37 110 -4 31 -11 63 -37 158 -27 100 -22
102 16 7z m387 65 c7 -8 16 -15 21 -15 5 0 6 7 3 15 -4 8 -4 15 -1 15 13 0 57
-24 57 -31 0 -4 9 -11 21 -14 11 -4 18 -9 15 -13 -4 -3 -20 4 -36 16 -37 28
-46 28 -20 0 25 -27 27 -47 2 -25 -23 21 -46 22 -38 2 4 -11 -2 -15 -24 -15
-22 0 -28 -4 -24 -15 4 -8 10 -13 14 -10 9 5 40 -21 40 -34 0 -4 -9 -17 -20
-29 -11 -12 -20 -26 -20 -33 0 -7 -11 -10 -30 -7 -36 5 -46 -13 -20 -37 14
-13 16 -20 7 -29 -9 -10 -16 -7 -34 12 -21 23 -28 22 -24 -1 1 -5 -4 -5 -10
-2 -6 4 -9 18 -6 31 2 14 -1 25 -11 29 -8 3 -12 12 -8 21 4 12 2 15 -9 10 -16
-6 -18 -2 -9 31 3 11 15 23 25 26 16 4 18 3 9 -8 -8 -10 -7 -21 5 -44 8 -17
17 -31 18 -31 1 0 3 27 3 61 1 46 6 65 23 83 22 23 28 42 11 31 -5 -3 -10 -2
-10 4 0 10 21 18 51 20 9 0 22 -6 29 -14z m-2406 -9 c-18 -8 -35 -19 -38 -25
-4 -6 -17 -11 -29 -10 l-22 0 23 11 c30 15 28 26 -4 20 -19 -3 -25 -1 -20 7 4
6 32 11 64 11 57 -1 57 -1 26 -14z m2282 3 c5 -8 -1 -10 -20 -7 -30 6 -33 1
-8 -18 16 -12 16 -13 0 -14 -9 0 -20 5 -23 10 -4 6 -21 17 -38 24 l-32 14 57
1 c33 1 60 -4 64 -10z m-2581 -19 c-10 -11 -23 -20 -29 -20 -6 0 0 9 14 20 32
25 38 25 15 0z m1094 -46 c-16 -19 -30 -18 -27 4 2 9 -4 18 -12 18 -8 1 -19 2
-24 3 -5 0 -3 8 4 16 11 13 16 12 42 -6 23 -17 26 -24 17 -35z m-799 11 c-13
-14 -33 -25 -44 -25 -18 0 -16 3 10 19 18 11 35 25 39 31 4 6 10 9 13 6 3 -4
-5 -17 -18 -31z m1876 -1 c9 3 20 -8 33 -34 11 -22 18 -40 16 -40 -15 0 -33
14 -29 23 2 7 -16 25 -41 40 -25 16 -45 31 -45 34 0 3 12 -2 26 -12 14 -9 32
-14 40 -11z m374 -17 c11 -4 9 -6 -6 -6 -11 -1 -31 11 -45 26 l-24 27 30 -21
c17 -11 37 -23 45 -26z m-2542 -48 c-13 -3 -28 -2 -35 3 -7 6 -13 3 -15 -9 -2
-10 5 -22 16 -28 24 -12 33 -35 14 -35 -7 0 -24 7 -37 16 -16 12 -20 19 -12
27 19 19 12 27 -19 22 l-31 -5 17 25 c12 18 23 24 41 20 19 -3 23 0 19 11 -3
8 10 2 29 -13 34 -27 34 -28 13 -34z m2825 45 c-4 -12 -1 -15 14 -12 20 3 53
-17 53 -33 0 -4 -11 -6 -25 -3 -25 4 -34 -9 -15 -21 11 -7 -30 -45 -49 -45
-18 0 -13 19 9 32 11 7 20 21 20 32 0 13 -4 16 -12 9 -7 -5 -24 -7 -37 -4
l-25 7 35 27 c40 32 40 32 32 11z m-2138 -4 c-10 -16 -62 -40 -69 -32 -9 9 35
42 57 42 10 0 15 -5 12 -10z m1454 -6 c17 -8 29 -20 25 -25 -3 -5 2 -12 10
-15 22 -9 21 -37 -1 -30 -10 3 -29 7 -43 10 -14 2 -38 7 -55 10 -24 5 -22 3
13 -13 23 -11 42 -25 42 -31 0 -5 6 -10 14 -10 8 0 16 -7 20 -15 7 -19 5 -19
-51 8 -48 22 -60 30 -88 55 -33 29 16 42 84 22 32 -9 61 -3 34 7 -21 7 -59 42
-47 43 6 0 25 -7 43 -16z m-1859 -25 c0 -6 6 -9 14 -6 32 12 50 -121 21 -159
-13 -18 -14 -18 -15 -1 0 27 -17 12 -23 -21 -9 -43 -52 -89 -90 -96 -19 -3
-43 -15 -55 -26 -19 -18 -96 -43 -81 -26 4 4 3 23 -1 42 -9 41 7 64 60 85 56
21 111 70 135 121 l22 46 12 -34 c7 -19 17 -34 22 -34 17 0 9 40 -16 80 -14
22 -21 40 -15 40 5 0 10 -5 10 -11z m2216 -23 c-18 -24 -26 -47 -26 -75 0 -23
4 -41 10 -41 5 0 7 6 4 14 -3 8 1 28 10 44 8 16 12 32 9 36 -4 3 -2 6 3 6 5 0
17 -20 27 -45 21 -51 99 -119 147 -130 43 -9 60 -38 49 -82 -4 -21 -6 -40 -3
-45 8 -13 -60 14 -81 33 -11 9 -33 21 -50 25 -42 10 -64 31 -91 89 -13 28 -23
42 -23 31 -1 -15 -4 -16 -16 -6 -10 8 -15 31 -15 66 0 66 14 106 35 98 8 -3
15 -1 15 5 0 6 5 11 11 11 6 0 0 -15 -15 -34z m-1738 7 c-2 -10 -13 -23 -26
-29 -12 -6 -19 -14 -15 -17 3 -4 -2 -7 -13 -7 -10 0 -32 -9 -49 -20 -16 -11
-36 -20 -44 -20 -20 0 37 49 77 66 36 16 44 30 10 19 -13 -4 -42 -10 -66 -14
-36 -7 -42 -5 -40 8 2 10 16 16 42 18 21 1 41 4 44 8 3 3 23 5 44 5 32 0 39
-3 36 -17z m-738 -46 c0 -6 -9 -2 -20 8 -11 10 -17 22 -13 28 6 10 33 -19 33
-36z m2774 34 c3 -4 -4 -17 -16 -27 -20 -18 -21 -18 -15 -1 4 10 7 23 7 28 0
11 17 12 24 0z m-1461 -120 c-37 -49 -69 -88 -71 -86 -4 4 128 175 134 175 3
0 -26 -40 -63 -89z m-1301 41 c-3 -10 -14 -26 -24 -36 -15 -17 -20 -18 -31 -6
-10 10 -9 12 5 7 12 -4 19 1 24 16 4 12 2 23 -5 25 -19 6 -2 20 18 15 13 -3
18 -10 13 -21z m2758 13 c11 -13 10 -14 -2 -10 -9 4 -18 -1 -22 -12 -6 -15 -8
-15 -16 -3 -14 21 -12 28 8 33 9 3 18 5 18 6 1 0 7 -6 14 -14z m-2280 -17 c0
-19 -2 -20 -10 -8 -13 19 -13 30 0 30 6 0 10 -10 10 -22z m1813 -49 c14 -35
14 -36 -4 -32 -12 3 -19 0 -19 -8 0 -8 -6 -5 -15 7 -17 23 -20 43 -3 26 21
-21 32 -13 13 8 -18 20 -18 20 -1 14 16 -6 17 -5 5 14 -10 15 -16 18 -21 9 -5
-7 -8 -3 -8 13 0 24 0 24 19 5 11 -11 26 -36 34 -56z m-1659 25 c-12 -29 -13
-43 -4 -70 14 -40 84 -126 96 -116 4 4 3 1 -1 -7 -6 -11 -4 -13 9 -8 11 4 15
3 10 -4 -4 -8 1 -9 17 -4 l24 7 -22 -19 c-13 -11 -20 -22 -17 -25 3 -3 -3 -8
-12 -12 -13 -5 -15 -1 -12 19 5 26 -5 31 -94 50 -16 3 -28 9 -28 14 0 17 45
20 75 6 26 -13 24 -10 -13 23 -51 44 -62 88 -38 145 8 20 17 37 20 37 3 0 -2
-16 -10 -36z m-185 4 c-10 -18 -9 -20 7 -14 17 7 17 6 -1 -14 -19 -21 -8 -28
14 -7 10 10 10 7 0 -15 -9 -21 -15 -25 -25 -17 -7 6 -17 8 -22 5 -5 -3 -2 15
6 39 8 25 18 45 24 45 5 0 4 -10 -3 -22z m1026 -30 l57 -52 -48 -21 c-44 -20
-102 -72 -118 -107 -5 -11 -7 -11 -12 0 -4 8 -20 29 -36 48 l-30 34 57 75 c32
41 61 75 66 75 4 0 33 -23 64 -52z m-885 27 c-7 -8 -24 -15 -38 -15 -31 0 -18
16 18 23 14 2 27 5 29 6 2 0 -2 -6 -9 -14z m1596 -6 c3 -5 -8 -9 -24 -9 -17 0
-32 6 -35 13 -4 10 3 12 24 9 16 -2 32 -8 35 -13z m589 -9 c-3 -5 -11 -10 -16
-10 -6 0 -7 5 -4 10 3 6 11 10 16 10 6 0 7 -4 4 -10z m-2198 -16 c-3 -3 -12
-4 -19 -1 -8 3 -5 6 6 6 11 1 17 -2 13 -5z m1590 0 c-3 -3 -12 -4 -19 -1 -8 3
-5 6 6 6 11 1 17 -2 13 -5z m-2121 -23 c-3 -5 -19 -12 -34 -16 -35 -8 -130
-73 -154 -106 -11 -14 -23 -47 -27 -75 l-7 -49 -8 43 c-6 31 -4 52 7 75 16 33
78 92 92 88 4 -2 11 2 14 8 4 5 22 13 41 16 19 3 44 12 55 19 21 15 31 13 21
-3z m2056 -38 c-2 -12 -11 -28 -20 -35 -13 -11 -14 -11 -7 2 10 16 11 19 14
65 2 25 4 27 10 11 4 -11 6 -30 3 -43z m-1806 -18 c-9 -23 -26 -51 -36 -60
-29 -26 -24 -7 10 44 17 24 30 53 31 65 0 12 3 15 6 8 3 -8 -2 -33 -11 -57z
m2413 50 c22 -8 41 -12 41 -9 0 2 10 -1 23 -8 12 -7 25 -11 28 -11 9 3 61 -47
86 -83 17 -24 21 -42 18 -74 -5 -51 -15 -66 -15 -24 -1 45 -33 106 -73 137
-20 15 -40 27 -45 27 -5 0 -15 6 -21 14 -7 8 -27 17 -46 20 -19 4 -37 11 -40
16 -8 13 -5 13 44 -5z m-251 -82 c26 -37 29 -51 5 -32 -19 16 -53 87 -52 109
0 8 6 1 12 -16 7 -16 22 -44 35 -61z m-1574 15 c23 -26 63 -33 81 -14 9 9 14
20 10 25 -3 6 9 8 30 4 29 -5 34 -3 30 9 -6 16 -10 16 130 -7 46 -8 82 -30 66
-40 -6 -3 -11 -2 -11 2 0 5 -32 10 -71 12 -68 2 -222 -26 -275 -51 -13 -6 -35
-7 -55 -2 -19 5 -38 9 -44 9 -21 0 -105 77 -105 95 0 10 19 -10 46 -49 2 -1 7
0 13 4 8 4 8 13 0 28 l-12 22 23 -20 c13 -11 20 -14 16 -7 -4 6 -3 12 2 12 5
0 15 -13 22 -29 14 -35 32 -44 62 -31 13 5 17 9 11 9 -7 1 -12 4 -12 9 1 4 0
9 -1 12 -1 3 -3 18 -4 33 l-2 29 18 -24 c9 -12 24 -31 32 -40z m53 56 c-3 -3
-12 -4 -19 -1 -8 3 -5 6 6 6 11 1 17 -2 13 -5z m943 -14 c-7 -14 -8 -20 0 -20
6 0 3 -11 -6 -25 -9 -14 -12 -25 -6 -25 6 0 17 -3 26 -6 11 -4 22 5 37 30 l21
36 19 -23 19 -22 29 33 c16 19 32 29 35 24 10 -16 -44 -73 -89 -93 -40 -19
-121 -26 -127 -11 -4 10 -147 43 -211 49 -119 12 -172 -8 -218 -82 -22 -35
-25 -26 -5 13 14 26 76 89 76 76 0 -4 6 -2 13 4 10 9 70 21 174 36 15 2 20 -1
15 -12 -4 -12 1 -14 26 -10 17 2 29 1 27 -2 -2 -4 6 -15 17 -25 29 -24 66 -10
97 38 25 38 50 52 31 17z m-1450 1 c0 -5 -9 -19 -20 -32 l-20 -24 17 32 c19
34 23 39 23 24z m154 -6 c6 -17 -11 -19 -63 -9 -41 9 -29 24 19 24 24 0 40 -5
44 -15z m1636 6 c0 -10 -34 -21 -67 -21 -23 0 -30 10 -16 23 10 10 83 8 83 -2z
m98 -33 c19 -22 9 -24 -12 -2 -9 8 -16 23 -15 32 0 14 2 14 6 2 3 -8 12 -23
21 -32z m-1707 -15 c13 -15 11 -16 -11 -10 -14 4 -34 7 -45 8 -17 1 -16 2 5 9
36 12 36 12 51 -7z m1568 1 c2 -2 -4 -4 -15 -4 -10 0 -30 -3 -44 -7 -22 -6
-24 -5 -11 10 12 15 53 15 70 1z m-870 -68 c30 -48 26 -56 -5 -10 -15 21 -34
45 -43 52 -14 11 -13 12 6 3 11 -6 31 -26 42 -45z m-733 7 c-3 -3 -20 -1 -38
4 -32 11 -32 11 -6 12 15 1 30 7 35 14 5 9 9 7 11 -6 2 -10 1 -21 -2 -24z
m1532 28 c19 -2 14 -19 -9 -26 -37 -12 -67 -12 -65 -1 3 23 16 33 38 31 13 -1
29 -3 36 -4z m82 -12 c23 0 23 -1 5 -9 -11 -5 -30 -9 -42 -9 -17 -1 -20 3 -16
20 4 14 9 17 16 10 6 -6 22 -11 37 -12z m-2230 -79 c0 -22 -50 -23 -51 -1 -2
21 0 40 7 71 5 24 6 23 24 -15 11 -22 19 -47 20 -55z m2846 35 c5 -51 -1 -69
-19 -58 -7 4 -15 8 -19 8 -12 0 -12 7 2 50 23 71 31 71 36 0z m-1553 26 c9
-10 6 -10 -16 -2 -40 16 -83 14 -120 -5 -40 -21 -107 -80 -99 -88 3 -3 0 -6
-6 -6 -6 0 -9 -6 -6 -14 5 -14 -13 -33 -22 -23 -19 19 76 132 125 148 36 11
129 5 144 -10z m360 5 c39 -17 102 -81 116 -119 15 -40 14 -52 -4 -37 -8 7
-15 21 -15 30 0 47 -96 121 -170 131 l-45 6 43 2 c23 0 57 -5 75 -13z m-1405
-7 c-12 -7 -24 -7 -35 0 -15 9 -12 10 17 10 29 0 32 -1 18 -10z m1282 7 c0 -2
-7 -7 -16 -10 -8 -3 -12 -2 -9 4 6 10 25 14 25 6z m1052 -8 c-17 -8 -26 -8
-34 0 -9 9 -4 12 23 11 32 0 33 -1 11 -11z m-2167 -17 c-3 -11 -1 -22 5 -26 5
-3 10 -11 10 -18 0 -7 -6 -5 -16 5 -14 14 -13 58 2 58 3 0 3 -9 -1 -19z m155
0 c3 -3 17 -14 33 -24 31 -20 37 -48 9 -40 -10 2 -38 23 -63 45 -43 40 -43 41
-14 34 16 -4 32 -11 35 -15z m1683 -15 c-45 -39 -82 -60 -91 -51 -6 6 9 21 63
64 14 10 37 19 53 20 6 1 -5 -14 -25 -33z m141 12 c3 -14 -1 -29 -9 -38 -13
-13 -15 -12 -15 3 0 9 5 17 10 17 7 0 7 6 0 20 -6 11 -7 20 -2 20 6 0 12 -10
16 -22z m-2184 2 c20 -6 14 -8 -27 -9 -43 -1 -58 -6 -87 -31 -40 -35 -61 -89
-51 -128 8 -31 43 -72 62 -72 7 0 13 -7 13 -15 0 -43 -85 10 -101 64 -35 117
76 228 191 191z m1078 -6 c20 -14 33 -42 13 -30 -9 6 -182 -38 -212 -55 -18
-9 -19 -8 -11 8 12 22 59 66 87 81 29 17 97 14 123 -4z m345 2 c33 -14 80 -59
89 -86 4 -12 -20 -7 -104 22 -61 20 -117 34 -126 31 -10 -3 -5 6 11 21 32 30
79 34 130 12z m192 -92 c25 -54 17 -60 -11 -8 -14 27 -40 65 -57 84 -29 32
-28 32 10 -4 23 -22 49 -54 58 -72z m-34 89 c13 -16 12 -17 -3 -4 -10 7 -18
15 -18 17 0 8 8 3 21 -13z m301 -3 c10 0 18 -7 18 -15 0 -22 -14 -18 -41 13
-13 15 -17 21 -9 15 8 -7 22 -13 32 -13z m623 -9 c89 -51 91 -209 3 -240 -24
-9 -33 -8 -40 1 -5 8 -1 14 10 16 26 6 59 41 65 69 8 40 -12 94 -48 130 -29
29 -40 33 -86 34 -43 1 -49 3 -29 9 33 11 87 3 125 -19z m-2051 4 c-4 -8 -12
-15 -19 -15 -7 0 -18 7 -25 15 -11 13 -8 15 18 15 24 0 30 -4 26 -15z m57 -5
c-12 -11 -28 -17 -33 -14 -16 10 9 25 52 33 3 0 -6 -8 -19 -19z m125 5 c-10
-8 -24 -11 -29 -8 -6 4 -2 10 9 14 31 12 40 9 20 -6z m115 -30 c-18 -50 -28
-56 -40 -22 -9 22 -9 22 -20 -6 -6 -16 -11 -33 -11 -38 0 -6 -13 -15 -30 -20
-16 -6 -30 -15 -30 -20 0 -5 -4 -9 -10 -9 -21 0 -10 66 15 90 13 12 23 28 22
34 -1 6 9 12 23 14 l25 3 -28 -22 c-29 -22 -62 -77 -53 -87 3 -3 6 -1 6 5 0
18 99 111 123 116 12 2 23 5 23 6 1 0 -6 -19 -15 -44z m919 20 c0 -8 14 -23
30 -35 17 -12 28 -26 24 -31 -3 -5 -1 -8 5 -7 5 2 16 -6 25 -17 15 -20 15 -20
9 2 -3 13 -23 39 -44 58 -36 33 -37 35 -15 35 25 0 50 -22 38 -34 -4 -4 -1 -6
7 -4 19 4 36 -53 26 -89 -4 -15 -10 -22 -12 -15 -3 7 -18 19 -33 27 -17 9 -33
28 -40 50 -12 35 -30 48 -30 21 0 -33 -19 -23 -32 17 l-14 43 28 -4 c15 -2 28
-10 28 -17z m160 -13 c0 -8 -6 -12 -12 -9 -7 2 -12 10 -10 16 1 6 -4 11 -10
11 -9 0 -8 3 2 10 15 10 30 -4 30 -28z m138 22 c-9 -9 -24 -14 -32 -11 -27 11
-17 27 16 27 30 0 31 -1 16 -16z m-1586 -69 c32 -36 37 -66 9 -58 -22 6 -100
83 -84 83 7 0 15 -4 18 -10 3 -5 11 -10 17 -10 7 0 -1 14 -18 31 l-29 32 30
-19 c16 -11 42 -32 57 -49z m458 61 c0 -2 -8 -10 -17 -17 -16 -13 -17 -12 -4
4 13 16 21 21 21 13z m1218 -21 c-32 -28 -36 -40 -9 -25 34 18 32 11 -6 -30
-43 -46 -93 -58 -72 -17 6 12 26 34 43 50 17 15 36 32 41 37 6 5 15 9 20 9 6
0 -2 -11 -17 -24z m-1533 -12 c-11 -24 -16 -45 -17 -63 0 -8 -10 -25 -22 -38
-11 -13 -21 -27 -20 -30 1 -4 -6 -18 -15 -32 -12 -17 -16 -47 -16 -110 1 -69
9 -112 43 -230 73 -255 79 -367 20 -422 -31 -29 -81 -38 -93 -17 -4 6 -12 8
-19 6 -15 -6 -49 40 -35 48 5 4 18 0 28 -9 37 -34 93 -7 107 50 9 34 -2 198
-16 244 -44 145 -71 334 -57 405 11 55 45 139 66 161 12 12 21 26 21 31 0 12
22 34 28 28 2 -2 1 -12 -3 -22z m1365 -28 c8 -16 20 -34 27 -40 7 -5 22 -46
34 -90 27 -99 23 -164 -23 -360 -40 -174 -46 -338 -14 -374 24 -26 60 -27 85
-2 16 16 22 17 30 7 8 -10 6 -17 -7 -27 -54 -44 -93 -50 -116 -18 -8 13 -21
19 -30 16 -33 -13 -46 102 -25 219 6 32 29 124 51 204 43 154 56 281 30 312
-6 8 -10 17 -7 20 3 3 -1 11 -10 18 -8 7 -15 18 -15 25 0 7 -7 18 -15 25 -9 7
-14 19 -11 26 3 7 1 16 -5 20 -6 3 -8 12 -5 20 3 7 1 16 -4 19 -6 4 -10 13
-10 21 0 20 19 1 40 -41z m-1710 20 c-7 -9 -15 -13 -18 -10 -3 2 1 11 8 20 7
9 15 13 18 10 3 -2 -1 -11 -8 -20z m2040 -7 c0 -6 -7 -5 -15 2 -8 7 -15 17
-15 22 0 6 7 5 15 -2 8 -7 15 -17 15 -22z m-2174 -18 c8 0 14 -4 14 -10 0 -5
-4 -10 -10 -10 -5 0 -10 -5 -10 -11 0 -7 11 -9 27 -6 25 5 26 4 10 -8 -10 -7
-19 -26 -20 -43 -1 -19 -6 -28 -14 -25 -8 3 -13 -4 -13 -20 0 -14 -4 -28 -9
-31 -13 -8 -7 72 7 86 19 19 15 25 -20 31 -18 4 -47 9 -65 13 -27 5 -37 1 -63
-24 l-30 -30 0 26 c0 38 14 55 37 48 12 -4 25 -1 33 9 7 8 17 12 22 9 5 -3 17
1 26 9 26 23 56 25 60 5 2 -10 10 -18 18 -18z m738 -1 c-24 -27 -29 -16 -8 16
10 16 20 23 22 16 2 -7 -4 -21 -14 -32z m1625 14 c7 -8 20 -12 27 -9 7 3 18
-3 23 -12 8 -14 13 -15 31 -4 18 11 21 10 30 -13 11 -28 13 -55 5 -55 -2 0
-16 12 -30 26 -27 27 -30 27 -122 8 -33 -6 -42 -17 -23 -29 6 -3 10 -27 10
-53 0 -34 -3 -43 -10 -32 -5 8 -7 24 -4 34 5 15 3 18 -10 13 -13 -5 -16 0 -16
24 0 17 -6 32 -15 35 -24 10 -17 22 10 16 19 -3 25 0 25 12 0 10 -4 14 -10 11
-5 -3 -10 -1 -10 4 0 6 7 11 15 11 8 0 15 9 15 19 0 15 5 18 23 13 12 -3 28
-12 36 -19z m-2095 -34 c-3 -5 2 -12 10 -15 9 -3 13 -10 10 -15 -3 -5 2 -12
11 -15 16 -6 49 -73 41 -81 -11 -11 -44 10 -55 33 -6 15 -7 23 -1 19 20 -12 9
13 -26 64 -32 48 -33 51 -10 36 14 -10 23 -21 20 -26z m266 37 c0 -2 -9 -6
-20 -9 -11 -3 -20 -1 -20 4 0 5 9 9 20 9 11 0 20 -2 20 -4z m1254 -5 c4 -5 -3
-7 -14 -4 -23 6 -26 13 -6 13 8 0 17 -4 20 -9z m247 -33 c-34 -47 -40 -67 -13
-47 15 11 15 11 4 -1 -7 -8 -17 -16 -22 -16 -23 -3 -24 -5 -12 -12 17 -11 5
-40 -20 -48 -11 -3 -21 -4 -24 -1 -8 8 25 75 41 81 9 3 13 10 10 16 -3 5 -1
10 4 10 6 0 11 5 11 12 0 14 30 48 42 48 6 0 -4 -19 -21 -42z m-1941 13 c0 -5
-7 -12 -16 -15 -14 -5 -15 -4 -4 9 14 17 20 19 20 6z m2115 -9 c-3 -3 -11 0
-18 7 -9 10 -8 11 6 5 10 -3 15 -9 12 -12z m-1043 -24 c-9 -9 -15 -9 -24 0 -9
9 -7 12 12 12 19 0 21 -3 12 -12z m-1492 -33 c0 -19 -2 -35 -4 -35 -2 0 -6 16
-8 35 -2 19 0 35 4 35 4 0 8 -16 8 -35z m481 -3 c11 -40 10 -81 -4 -85 -7 -2
-22 21 -49 75 -15 32 -8 33 17 3 26 -31 32 -24 15 19 -6 16 -6 26 0 26 5 0 14
-17 21 -38z m904 28 c-11 -4 -49 -13 -84 -20 -35 -6 -74 -18 -86 -26 -12 -8
-24 -12 -27 -9 -3 3 -11 -1 -18 -10 -7 -8 -17 -15 -22 -15 -43 0 -205 -140
-249 -215 -38 -66 -89 -171 -89 -184 0 -10 -3 -12 -10 -5 -25 25 94 227 183
312 91 85 174 130 312 167 57 16 124 20 90 5z m1090 -27 l-7 -37 21 24 c11 14
20 21 21 16 0 -16 -41 -96 -50 -96 -23 0 -19 78 7 123 11 18 15 4 8 -30z m472
-15 c-2 -13 -4 -5 -4 17 -1 22 1 32 4 23 2 -10 2 -28 0 -40z m-2679 10 c11
-23 10 -32 -2 -56 -8 -16 -22 -32 -30 -35 -22 -9 -26 18 -5 36 24 21 24 53 0
66 -14 8 -22 7 -31 -4 -7 -9 -10 -19 -6 -22 4 -4 11 -1 15 6 7 10 10 10 16 1
4 -6 3 -16 -3 -22 -15 -15 -46 -5 -50 15 -10 52 72 64 96 15z m119 26 c-4 -4
1 -19 10 -34 14 -24 14 -32 2 -70 -18 -56 -43 -67 -37 -17 2 20 0 33 -4 31 -4
-3 -8 2 -8 10 0 8 8 19 18 25 16 9 16 11 -3 25 -17 14 -17 15 -2 10 10 -4 17
-3 16 2 -2 15 1 24 8 24 3 0 3 -3 0 -6z m203 -63 c0 -9 5 -22 10 -27 7 -7 7
-25 2 -50 l-8 -39 -22 40 c-11 22 -22 33 -23 25 0 -8 -4 -4 -8 10 -4 14 -13
24 -19 23 -7 -2 -12 5 -12 15 0 9 -3 28 -7 41 l-6 24 21 -21 c11 -11 28 -35
37 -52 9 -18 18 -30 20 -28 5 5 -19 75 -28 84 -4 4 -7 12 -7 18 1 18 50 -44
50 -63z m1 52 c13 -16 12 -17 -3 -4 -10 7 -18 15 -18 17 0 8 8 3 21 -13z
m1089 -4 c9 -5 1 -6 -20 -3 -19 4 -39 11 -45 16 -12 11 41 0 65 -13z m700 -27
c-13 -26 -18 -51 -14 -69 4 -19 1 -33 -9 -41 -12 -10 -16 -7 -21 20 -3 17 -2
36 4 42 5 5 10 19 10 30 0 18 39 70 47 63 1 -2 -6 -22 -17 -45z m380 33 c19
-23 8 -50 -23 -53 -19 -2 -27 1 -27 12 0 19 17 30 23 14 2 -7 8 -10 13 -5 4 4
0 15 -9 24 -13 13 -19 14 -31 3 -21 -16 -20 -57 0 -68 9 -5 14 -18 12 -28 -3
-17 -6 -17 -31 8 -31 31 -34 54 -11 86 18 26 65 30 84 7z m117 -22 c-3 -10 -5
-4 -5 12 0 17 2 24 5 18 2 -7 2 -21 0 -30z m-448 -11 c-6 -18 -15 -32 -20 -32
-5 0 -9 -12 -9 -26 0 -23 -1 -24 -16 -9 -15 14 -15 18 1 41 18 27 48 62 53 59
1 -1 -3 -16 -9 -33z m-1276 22 c3 -4 -17 -18 -46 -33 -48 -24 -185 -150 -236
-216 -12 -16 -6 -6 14 23 20 30 34 59 32 65 -7 22 122 146 158 151 8 1 18 5
21 9 9 9 48 9 57 1z m501 -29 c127 -37 218 -95 316 -202 92 -101 158 -277 139
-374 -4 -24 -8 -47 -9 -51 0 -4 -10 -8 -22 -11 l-23 -4 24 -10 c19 -8 21 -11
8 -16 -8 -3 -21 1 -27 9 -14 16 -40 19 -40 4 0 -5 7 -10 16 -10 9 0 23 -8 30
-17 11 -15 15 -15 23 -4 11 16 25 -67 15 -92 -8 -21 -44 -22 -44 -2 0 19 -14
19 -30 0 -16 -19 -6 -59 22 -85 12 -11 18 -23 14 -27 -10 -10 -78 -4 -93 9
-16 13 -28 -12 -20 -43 4 -16 3 -18 -9 -8 -8 6 -12 21 -9 33 5 17 -6 28 -57
61 -78 49 -78 49 -78 36 0 -22 -45 -81 -62 -81 -20 0 -48 -37 -48 -62 0 -9 24
-42 54 -73 42 -44 60 -56 85 -57 26 -1 30 -4 25 -20 -5 -17 -3 -18 15 -8 12 6
19 15 16 20 -3 4 9 20 27 34 38 30 35 32 -15 11 -40 -17 -122 -21 -97 -5 8 5
12 10 10 12 -3 2 -22 11 -42 22 -20 10 -40 26 -43 34 -5 13 -2 13 14 -2 32
-29 100 -44 161 -36 86 12 109 20 202 66 85 42 196 71 235 61 11 -3 5 -5 -13
-6 -45 -1 -107 -25 -158 -60 -45 -32 -96 -114 -96 -156 0 -30 -29 -87 -41 -80
-15 10 -10 54 8 82 17 25 17 26 -6 18 l-22 -7 21 42 c14 27 32 46 51 53 16 6
29 17 29 24 0 21 -14 15 -60 -25 -24 -20 -45 -35 -46 -32 0 3 -31 -22 -68 -55
-139 -124 -236 -168 -411 -187 -95 -11 -110 -10 -191 10 -123 30 -236 88 -317
163 -37 34 -70 59 -73 57 -2 -3 -21 10 -41 28 -37 34 -63 44 -63 23 0 -5 13
-15 29 -20 19 -7 37 -27 55 -59 16 -29 49 -67 79 -90 94 -72 94 -73 58 -53
-18 10 -63 46 -99 80 -40 38 -70 59 -76 53 -5 -5 -17 8 -30 33 -27 53 -92 102
-162 123 -31 9 -54 17 -52 19 11 10 132 -21 197 -51 136 -65 229 -83 305 -60
26 8 56 21 65 28 9 7 4 1 -11 -14 -16 -16 -38 -28 -51 -29 -12 0 -16 -3 -9 -6
6 -2 12 -9 12 -14 0 -15 -68 -10 -100 6 -17 9 -30 11 -30 6 0 -6 10 -16 23
-22 12 -7 27 -19 34 -28 7 -9 13 -11 13 -5 0 6 10 12 23 13 12 0 36 2 53 4 23
2 30 -1 27 -10 -3 -7 2 -13 11 -13 9 0 16 8 16 18 0 9 10 -3 23 -28 25 -50 55
-80 107 -107 19 -10 43 -27 53 -38 17 -20 17 -20 33 0 14 16 16 17 11 3 -8
-22 15 -24 32 -4 6 7 28 16 49 20 56 10 112 54 143 114 16 28 30 48 33 43 4
-5 3 -17 -1 -26 -6 -16 -4 -16 20 0 l27 17 -25 19 c-17 14 -25 31 -27 62 -2
23 -8 41 -13 40 -6 -1 -10 12 -8 30 7 76 -108 167 -211 167 -82 0 -123 -17
-179 -72 -39 -39 -58 -51 -79 -49 -14 1 -29 -2 -33 -8 -3 -7 2 -11 14 -11 12
0 21 -7 21 -15 0 -17 -4 -18 -49 -9 -17 4 -31 12 -31 19 0 20 -32 43 -37 28
-3 -7 -13 -13 -23 -13 -10 0 -32 -11 -48 -25 -24 -20 -29 -22 -25 -8 3 10 33
36 66 59 34 23 62 47 61 55 -1 26 -16 69 -23 69 -4 0 -35 -13 -69 -30 -34 -16
-67 -30 -72 -30 -13 0 -12 -10 5 -40 22 -38 18 -47 -20 -52 -23 -3 -32 -1 -25
6 6 6 5 15 -2 24 -10 11 -8 17 6 27 16 13 17 16 3 35 -9 12 -13 28 -10 35 3
10 -2 12 -16 8 -13 -3 -20 -12 -19 -22 2 -10 -5 -17 -21 -19 -34 -5 -44 10
-36 56 5 34 10 41 35 44 16 3 28 0 27 -6 -1 -5 7 -12 17 -14 14 -3 17 0 13 12
-4 11 -1 16 11 17 9 0 69 6 132 13 76 9 119 10 128 3 8 -6 17 -5 29 4 11 10
14 10 9 2 -9 -16 -7 -16 42 1 36 13 40 13 35 0 -6 -16 12 -19 22 -4 3 6 12 10
18 9 9 0 9 -2 0 -6 -22 -8 -14 -23 11 -23 13 0 30 7 37 17 13 15 12 15 -11 3
l-25 -13 19 22 c19 21 20 21 40 3 25 -22 64 -26 85 -9 8 7 20 27 28 45 8 20
20 32 32 32 29 0 51 11 51 25 0 22 31 75 44 75 7 0 18 11 24 24 6 13 45 51 86
83 42 32 71 59 66 61 -5 2 -45 -24 -88 -58 -44 -34 -86 -62 -93 -64 -8 -1 -25
-8 -39 -16 -14 -7 -38 -15 -54 -17 -42 -5 -56 -20 -49 -53 5 -28 5 -28 -34
-23 -34 4 -43 2 -60 -20 -17 -23 -22 -24 -34 -11 -12 12 -19 12 -42 2 -15 -7
-27 -16 -27 -20 0 -5 -18 -8 -39 -8 -22 0 -42 -4 -46 -10 -3 -5 -13 -6 -21 -3
-9 3 -19 1 -23 -5 -6 -10 -329 -58 -335 -50 -2 1 -6 21 -9 43 -5 28 -3 35 3
25 9 -13 11 -13 20 0 13 21 7 36 -15 32 -11 -2 -14 1 -10 8 4 6 13 9 21 6 16
-6 18 3 5 23 -8 12 -12 12 -25 2 -12 -10 -15 -7 -18 21 -5 47 7 95 41 172 l31
67 24 -16 c27 -18 51 -12 42 11 -3 8 1 14 10 14 25 0 12 35 -14 38 -22 3 -23
1 -18 -35 5 -35 5 -36 -7 -15 -7 12 -17 19 -22 15 -5 -4 4 10 19 32 45 62 106
124 161 161 l49 34 22 -26 c16 -17 24 -21 30 -13 4 7 0 17 -9 24 -30 22 -19
32 66 60 150 50 262 53 411 10z m920 18 c-15 -11 -15 -13 0 -28 16 -17 23 -40
8 -31 -4 2 -6 -11 -4 -30 7 -62 -30 -36 -42 28 -8 45 5 74 34 74 19 0 20 -1 4
-13z m-2507 -15 c-3 -8 -6 -5 -6 6 -1 11 2 17 5 13 3 -3 4 -12 1 -19z m2830 0
c-3 -8 -6 -5 -6 6 -1 11 2 17 5 13 3 -3 4 -12 1 -19z m-2923 -4 c3 -8 2 -12
-4 -9 -6 3 -10 10 -10 16 0 14 7 11 14 -7z m1786 6 c8 -5 11 -10 5 -10 -5 0
-17 5 -25 10 -8 5 -10 10 -5 10 6 0 17 -5 25 -10z m1094 -47 c-11 -15 -26 -29
-33 -31 -7 -2 -1 7 13 22 14 14 26 31 26 37 0 7 3 9 7 6 4 -4 -2 -19 -13 -34z
m-1014 1 c0 -2 -9 0 -20 6 -11 6 -20 13 -20 16 0 2 9 0 20 -6 11 -6 20 -13 20
-16z m-1735 -14 c10 -11 16 -20 13 -20 -3 0 -13 9 -23 20 -10 11 -16 20 -13
20 3 0 13 -9 23 -20z m701 -2 c-9 -12 -16 -29 -16 -36 0 -12 3 -12 18 -1 9 7
-1 -6 -23 -29 -21 -23 -43 -42 -47 -42 -16 0 -7 32 17 58 14 15 25 34 25 44 0
15 12 25 33 27 5 1 1 -9 -7 -21z m1338 16 c8 -3 12 -12 9 -19 -2 -8 9 -28 26
-44 45 -44 41 -82 -4 -43 -29 24 -66 71 -42 53 21 -16 22 -2 2 25 -23 30 -20
39 9 28z m-1384 -23 c0 -12 -20 -25 -27 -18 -7 7 6 27 18 27 5 0 9 -4 9 -9z
m1444 -6 c3 -9 0 -15 -9 -15 -8 0 -15 7 -15 15 0 8 4 15 9 15 5 0 11 -7 15
-15z m-2070 -45 c6 0 12 -20 13 -44 l2 -44 -28 14 c-35 18 -47 32 -53 64 -3
14 -9 33 -13 43 -6 15 -1 14 30 -7 21 -14 43 -26 49 -26z m145 29 c-8 -5 -21
-9 -29 -9 -12 1 -11 4 4 15 10 8 23 12 29 8 5 -3 3 -9 -4 -14z m1695 -58 c40
-44 9 -24 -44 28 -44 44 -47 49 -15 24 22 -17 49 -40 59 -52z m567 34 c8 -16
6 -15 -10 4 -12 13 -21 28 -21 35 0 12 14 -5 31 -39z m156 18 c-9 -8 -48 8
-42 18 4 5 14 5 26 -2 12 -6 18 -13 16 -16z m-2287 -19 c-18 -21 -24 -10 -8
15 7 12 14 17 16 11 2 -6 -2 -17 -8 -26z m119 22 c7 -8 11 -30 9 -48 -2 -27
-7 -33 -27 -33 -13 0 -25 6 -27 13 -1 7 0 8 3 2 2 -5 13 -10 24 -10 24 0 26
46 2 72 -9 10 -11 18 -6 18 6 0 16 -6 22 -14z m1891 -14 c-24 -32 -18 -59 13
-65 l22 -4 -22 -2 c-39 -2 -51 47 -20 87 20 26 27 11 7 -16z m453 -14 c-18
-53 -30 -68 -53 -68 -10 0 -21 -6 -24 -12 -4 -7 -4 3 -2 23 2 20 -1 42 -7 48
-8 8 -6 11 9 11 10 0 33 9 49 20 42 28 45 26 28 -22z m-2510 -4 l29 -26 27 26
c30 29 62 34 81 11 10 -12 10 -15 -3 -15 -18 0 -34 -18 -39 -45 -3 -22 -11
-34 -45 -71 -19 -21 -20 -24 -5 -24 9 0 31 17 49 37 17 21 33 36 36 33 10 -10
-6 -70 -18 -70 -7 0 -15 -5 -17 -10 -2 -6 -15 -13 -28 -15 -19 -3 -36 5 -65
30 -22 19 -44 35 -49 35 -4 0 -1 11 8 25 20 30 20 36 1 29 -10 -4 -15 0 -15
15 0 51 -34 7 -38 -49 -2 -42 -17 -65 -34 -54 -4 3 -8 -2 -8 -10 0 -8 5 -18
11 -21 6 -4 8 -13 5 -20 -2 -7 -1 -16 4 -21 5 -5 2 -15 -6 -22 -11 -10 -14
-10 -14 2 0 8 -4 17 -9 20 -5 3 -9 0 -8 -7 2 -52 -4 -76 -17 -71 -11 4 -16 -4
-18 -28 -4 -32 -4 -32 -14 -10 -6 13 -7 46 -4 73 6 43 4 49 -9 44 -13 -5 -14
-4 -3 6 14 15 16 59 3 59 -5 0 -13 -9 -16 -21 -4 -11 -9 -18 -13 -15 -3 3 1
17 8 31 10 20 16 22 32 14 10 -5 16 -14 13 -18 -7 -12 22 -34 35 -26 5 3 10
14 10 24 0 9 4 21 9 27 11 10 33 89 32 116 0 15 35 35 64 37 6 1 23 -11 38
-25z m287 22 c0 -3 -4 -8 -10 -11 -5 -3 -10 -1 -10 4 0 6 5 11 10 11 6 0 10
-2 10 -4z m1660 -6 c0 -5 -2 -10 -4 -10 -3 0 -8 5 -11 10 -3 6 -1 10 4 10 6 0
11 -4 11 -10z m199 -9 c12 -21 42 -36 50 -24 3 4 16 16 28 26 19 17 26 17 58
7 25 -8 35 -17 31 -26 -3 -8 -1 -22 4 -32 5 -9 12 -34 15 -54 3 -21 10 -38 15
-38 5 0 10 -10 12 -22 4 -31 26 -34 37 -5 14 36 36 40 50 10 7 -14 10 -28 7
-30 -2 -2 -7 5 -11 16 -11 36 -28 24 -22 -14 3 -20 3 -34 -1 -31 -4 2 -7 -25
-7 -59 0 -40 -5 -69 -13 -77 -11 -11 -13 -7 -10 22 2 24 -1 34 -9 32 -12 -2
-15 10 -16 66 -1 21 -17 33 -17 12 0 -5 -6 -10 -14 -10 -15 0 -11 46 7 68 8
11 -5 17 -34 14 -3 0 -4 18 -4 41 2 43 -12 87 -27 87 -4 0 -8 -9 -8 -21 0 -15
-5 -19 -16 -15 -12 5 -14 1 -8 -17 4 -12 10 -23 15 -25 4 -2 -15 -23 -44 -46
-33 -28 -55 -39 -59 -32 -4 6 -8 7 -8 3 0 -5 -13 0 -29 9 -19 12 -31 28 -34
48 -7 45 1 46 35 4 16 -21 38 -38 48 -38 14 0 11 7 -15 36 -18 19 -36 49 -39
66 -4 18 -14 32 -26 35 -16 4 -18 8 -9 19 17 20 57 17 68 -5z m-1889 -59 c0
-13 -3 -12 -18 1 -10 10 -24 17 -30 17 -7 0 -12 9 -12 20 0 20 0 20 30 -2 17
-12 30 -28 30 -36z m-413 26 c-3 -8 -6 -5 -6 6 -1 11 2 17 5 13 3 -3 4 -12 1
-19z m2173 9 c0 -7 -13 -18 -30 -24 -35 -13 -40 -2 -7 20 27 20 37 21 37 4z
m357 -9 c-3 -8 -6 -5 -6 6 -1 11 2 17 5 13 3 -3 4 -12 1 -19z m-2832 2 c3 -6
-1 -7 -9 -4 -18 7 -21 14 -7 14 6 0 13 -4 16 -10z m870 -20 c-16 -16 -32 -30
-37 -30 -8 0 53 59 61 60 3 0 -8 -13 -24 -30z m50 3 c-34 -53 -48 -70 -42 -50
4 9 4 17 1 17 -10 0 -33 -28 -28 -33 3 -3 1 -7 -3 -10 -5 -3 -9 3 -10 13 -1
12 10 24 33 35 18 9 38 25 44 35 6 11 13 20 17 20 3 0 -3 -12 -12 -27z m1293
2 c-3 -3 -9 2 -12 12 -6 14 -5 15 5 6 7 -7 10 -15 7 -18z m942 21 c0 -2 -7 -7
-16 -10 -8 -3 -12 -2 -9 4 6 10 25 14 25 6z m-3089 -32 c5 -15 8 -29 5 -31 -2
-2 -8 10 -14 26 -13 38 -5 41 9 5z m2214 -4 c10 -11 16 -20 13 -20 -3 0 -13 9
-23 20 -10 11 -16 20 -13 20 3 0 13 -9 23 -20z m795 7 c0 -7 -7 -22 -15 -33
-13 -17 -14 -16 -4 14 11 33 19 41 19 19z m-2753 -34 c-6 -36 -22 -61 -32 -51
-14 14 -14 58 1 72 26 27 37 19 31 -21z m2524 18 c5 -38 4 -52 -3 -63 -12 -18
-38 18 -38 53 0 22 4 26 20 22 11 -3 20 -8 21 -12z m-607 3 c8 -3 13 -11 10
-18 -3 -7 3 -29 11 -50 9 -21 14 -40 12 -42 -2 -2 -15 23 -30 56 -14 33 -24
60 -22 60 2 0 10 -3 19 -6z m-1571 -14 c-44 -18 -13 -56 37 -47 25 6 32 2 44
-21 7 -15 16 -46 19 -69 4 -36 3 -40 -9 -28 -8 7 -14 30 -14 49 l0 36 -44 -4
c-39 -4 -47 -1 -61 21 -22 33 -7 73 27 72 l23 0 -22 -9z m1811 4 c22 -8 20
-57 -1 -76 -11 -9 -33 -14 -55 -12 -38 3 -38 3 -38 -35 0 -25 -5 -41 -15 -45
-13 -4 -14 2 -9 37 10 62 27 82 72 82 30 0 38 4 40 22 2 14 -3 23 -15 26 -10
3 -13 5 -6 6 6 0 18 -2 27 -5z m-193 -37 c-10 -9 -11 -8 -5 6 3 10 9 15 12 12
3 -3 0 -11 -7 -18z m-2161 -24 c0 -7 -39 17 -46 28 -3 6 5 3 20 -6 14 -10 26
-19 26 -22z m2910 23 c0 -2 -8 -10 -17 -17 -16 -13 -17 -12 -4 4 13 16 21 21
21 13z m-540 -61 c-13 -14 -26 -23 -28 -20 -4 4 38 44 47 45 3 0 -6 -11 -19
-25z m-1839 -12 c13 -17 13 -17 -6 -3 -11 8 -22 16 -24 17 -2 2 0 3 6 3 6 0
17 -8 24 -17z m1523 1 c3 -8 2 -12 -4 -9 -6 3 -10 10 -10 16 0 14 7 11 14 -7z
m-1496 -51 c17 -13 32 -29 32 -34 0 -6 -4 -8 -9 -4 -23 14 -22 -20 1 -39 14
-12 28 -29 31 -38 6 -17 -9 -75 -23 -92 -15 -15 -43 11 -46 43 -4 30 -27 71
-68 119 -32 36 15 21 63 -22 18 -15 16 -9 -9 23 -18 24 -47 52 -63 61 -29 18
-29 18 -6 22 28 5 51 -5 97 -39z m1871 28 c-25 -10 -75 -55 -94 -87 l-19 -29
30 26 c16 15 40 30 52 34 24 7 24 7 -3 -23 -34 -39 -53 -74 -60 -115 -4 -18
-15 -38 -26 -45 -17 -11 -20 -8 -34 24 -22 53 -18 104 9 104 18 0 35 21 29 36
-3 8 -10 11 -15 8 -6 -4 -9 -1 -6 7 2 8 25 28 50 45 34 23 54 30 74 26 20 -4
24 -7 13 -11z m-1839 -16 c32 -34 21 -37 -14 -3 -16 16 -24 28 -19 28 5 0 20
-11 33 -25z m193 10 c-3 -9 -8 -14 -10 -11 -3 3 -2 9 2 15 9 16 15 13 8 -4z
m1546 13 c-2 -2 -17 -14 -34 -28 l-30 -25 24 28 c14 15 29 27 34 27 6 0 8 -1
6 -2z m-225 -108 c4 -22 -3 -11 -19 30 -13 36 -25 67 -24 70 0 15 38 -70 43
-100z m-2056 -102 c4 -38 5 -68 2 -68 -7 0 -40 196 -39 230 1 35 28 -82 37
-162z m329 167 c35 -11 62 -27 87 -55 39 -44 39 -43 30 -89 -6 -26 -10 -30
-28 -25 -11 3 -31 16 -43 27 -34 30 -28 5 8 -34 25 -28 48 -67 53 -89 1 -3 14
-24 29 -48 16 -24 27 -51 25 -60 -5 -23 -50 -19 -89 9 -26 18 -33 19 -41 8 -8
-11 -9 -10 -4 4 3 9 0 17 -6 17 -7 0 -6 5 2 15 15 18 -2 45 -29 45 -15 0 -40
47 -47 88 -1 8 -6 21 -10 30 -4 9 -6 26 -4 37 2 20 2 20 -19 1 -15 -14 -21
-15 -20 -5 2 35 27 81 54 99 35 23 17 27 -25 5 -28 -15 -30 -14 -30 3 0 37 26
41 107 17z m2229 -12 c4 -21 3 -21 -32 -7 -40 17 -58 12 -25 -6 20 -10 61 -78
61 -101 0 -7 -9 -5 -26 6 -25 16 -26 16 -19 -4 3 -11 3 -26 -2 -33 -4 -7 -9
-24 -11 -38 -4 -32 -18 -48 -44 -52 -26 -4 -49 -38 -30 -45 15 -6 16 -33 0
-33 -6 0 -9 -3 -5 -6 7 -7 -96 -64 -117 -64 -24 0 -28 32 -6 62 11 15 20 32
20 38 0 5 3 10 8 10 4 0 13 15 21 33 8 17 29 51 48 75 19 23 33 42 31 42 -2 0
-21 -9 -43 -20 -43 -22 -55 -16 -55 32 0 29 47 90 84 110 30 16 76 27 110 25
22 -2 30 -8 32 -24z m249 -94 c-10 -54 -22 -96 -27 -93 -9 6 -8 9 19 131 24
112 30 84 8 -38z m-648 89 c-3 -8 -6 -5 -6 6 -1 11 2 17 5 13 3 -3 4 -12 1
-19z m-1963 -49 c-3 -5 -11 -3 -18 4 -18 16 -8 31 10 16 7 -6 11 -15 8 -20z
m2410 7 c-6 -16 -24 -23 -24 -8 0 10 22 33 27 28 2 -2 1 -11 -3 -20z m-427
-33 c-3 -10 -5 -4 -5 12 0 17 2 24 5 18 2 -7 2 -21 0 -30z m801 -20 c-8 -10
-28 -51 -43 -91 -16 -40 -32 -75 -36 -78 -8 -5 4 40 21 81 5 11 11 32 14 48 7
29 44 73 53 63 4 -3 -1 -14 -9 -23z m-818 -18 c0 -5 -5 -3 -10 5 -5 8 -10 20
-10 25 0 6 5 3 10 -5 5 -8 10 -19 10 -25z m826 -36 c-20 -40 -20 -40 2 -32 13
5 12 1 -5 -19 -24 -25 -31 -44 -13 -33 18 11 11 -8 -12 -32 -19 -20 -19 -23
-4 -23 26 0 10 -18 -31 -35 -53 -22 -58 -15 -23 32 27 36 46 77 85 178 4 12 9
15 12 8 3 -7 -3 -27 -11 -44z m-3163 13 c9 -8 17 -24 17 -34 0 -11 5 -29 12
-41 16 -28 38 -90 34 -94 -2 -2 -20 34 -40 79 -21 46 -45 92 -54 102 -13 15
-14 18 -2 11 8 -4 23 -15 33 -23z m1717 9 c0 -10 -39 -41 -52 -41 -4 0 2 11
14 25 22 26 38 32 38 16z m1160 -47 c0 -13 -4 -25 -9 -28 -5 -4 -7 3 -4 14 3
11 -3 32 -12 47 l-18 28 21 -19 c12 -11 22 -29 22 -42z m-2874 -55 c12 -32 39
-79 59 -104 21 -25 35 -45 33 -45 -12 0 -74 24 -86 33 -10 8 -10 12 -1 18 10
6 6 13 -12 29 -17 15 -20 23 -11 27 10 4 8 11 -10 30 -17 18 -18 22 -5 17 21
-8 21 4 2 30 -8 11 -15 29 -15 40 1 20 1 20 12 2 6 -10 21 -45 34 -77z m1634
76 c0 -8 -2 -15 -4 -15 -2 0 -6 7 -10 15 -3 8 -1 15 4 15 6 0 10 -7 10 -15z
m714 -80 c4 -36 3 -56 -2 -50 -5 6 -12 42 -15 80 -6 81 7 59 17 -30z m727 68
c-12 -20 -14 -14 -5 12 4 9 9 14 11 11 3 -2 0 -13 -6 -23z m-2821 10 c0 -5 -7
-17 -16 -28 -14 -19 -14 -19 -10 5 2 14 5 26 5 28 2 6 21 1 21 -5z m24 -18
c-9 -14 -14 -36 -12 -50 3 -13 1 -22 -3 -19 -15 9 -10 56 8 76 23 26 26 22 7
-7z m2623 -17 c-3 -7 -5 -2 -5 12 0 14 2 19 5 13 2 -7 2 -19 0 -25z m151 1 c8
-12 11 -32 7 -50 -9 -41 -25 -46 -18 -6 3 19 0 44 -6 56 -15 27 0 28 17 0z
m-2990 -24 c-3 -3 -9 2 -12 12 -6 14 -5 15 5 6 7 -7 10 -15 7 -18z m779 -57
c-2 -18 -4 -6 -4 27 0 33 2 48 4 33 2 -15 2 -42 0 -60z m838 72 c3 -5 2 -10
-4 -10 -5 0 -13 5 -16 10 -3 6 -2 10 4 10 5 0 13 -4 16 -10z m1342 -52 c-2
-13 -4 -3 -4 22 0 25 2 35 4 23 2 -13 2 -33 0 -45z m-2928 18 c-9 -19 -10 -35
-2 -61 14 -45 -2 -36 -17 11 -10 29 -9 39 5 60 21 32 30 26 14 -10z m2670 -27
c-10 -19 -4 -17 32 12 40 31 42 32 24 7 -11 -15 -53 -43 -93 -63 -41 -19 -89
-47 -108 -61 -36 -28 -47 -19 -14 11 11 10 22 26 25 36 8 24 22 24 27 2 3 -12
11 -2 25 29 16 34 26 46 37 42 14 -5 14 -8 -1 -30 -8 -13 -11 -24 -5 -24 13 0
39 41 49 76 7 26 8 27 11 7 2 -12 -2 -32 -9 -44z m231 2 c0 -9 -5 -23 -11 -31
-8 -12 -9 -8 -6 15 3 16 1 39 -4 50 -10 20 -10 20 5 1 9 -11 16 -27 16 -35z
m-2260 -16 c-14 -41 -27 -45 -40 -9 -13 32 -12 37 0 29 6 -3 10 0 10 7 0 11 2
10 9 0 6 -10 10 -8 15 10 4 13 9 18 12 11 3 -7 0 -29 -6 -48z m2140 26 c-6
-12 -16 -21 -23 -21 -7 0 -22 -7 -33 -15 -18 -15 -17 -16 16 -10 33 6 34 5 16
-10 -20 -15 -36 -19 -68 -16 -19 2 -148 -54 -148 -64 0 -4 10 -3 22 1 13 4 36
7 53 7 16 -1 24 1 17 4 -10 4 -8 9 5 19 20 15 52 18 80 7 16 -6 15 -8 -7 -14
l-25 -6 25 -11 c14 -5 31 -17 38 -25 10 -12 8 -15 -15 -20 -18 -3 -34 0 -46
10 -21 20 -35 10 -17 -12 11 -13 9 -15 -13 -15 -14 0 -29 5 -33 11 -4 7 -22 9
-48 5 -22 -3 -48 -6 -56 -7 -8 -1 -22 -7 -30 -13 -10 -7 -9 -3 3 10 9 11 14
23 11 27 -8 7 84 67 146 94 25 11 65 36 90 56 48 39 58 41 40 8z m89 -24 c0
-33 -2 -38 -9 -22 -12 28 -12 78 0 70 6 -3 10 -25 9 -48z m-2852 -9 c-2 -13
-4 -5 -4 17 -1 22 1 32 4 23 2 -10 2 -28 0 -40z m286 -29 c10 -11 21 -18 24
-15 3 3 1 11 -5 19 -6 7 -7 18 -3 26 7 11 12 8 24 -10 8 -13 18 -34 22 -47 l6
-22 -58 25 c-32 14 -69 38 -83 52 l-25 27 39 -28 c32 -24 36 -26 27 -8 -6 11
-11 31 -10 44 0 19 2 18 12 -9 7 -18 20 -42 30 -54z m1053 65 c-4 -9 -1 -23 5
-30 9 -11 9 -14 0 -14 -6 0 -14 7 -17 15 -7 16 1 45 12 45 3 0 3 -7 0 -16z
m965 -3 c0 10 2 10 6 1 2 -6 9 -10 14 -6 5 3 9 2 9 -1 0 -6 -20 -46 -26 -54
-9 -9 -33 35 -33 59 0 24 0 24 14 6 11 -15 15 -16 16 -5z m-2229 -68 c-2 -13
-8 -20 -13 -17 -11 6 -12 45 -2 71 6 16 8 15 13 -7 3 -14 4 -35 2 -47z m121
20 c16 -13 62 -39 103 -58 81 -37 138 -74 130 -83 -4 -3 2 -15 11 -26 17 -20
17 -20 0 -7 -9 8 -20 11 -23 8 -3 -3 -20 1 -38 8 -28 12 -37 12 -60 -1 -48
-24 -84 -16 -54 14 18 18 -3 15 -23 -3 -11 -11 -25 -14 -45 -9 l-28 7 34 29
c28 23 31 28 15 28 -19 1 -19 1 -2 11 22 13 76 2 84 -17 3 -7 15 -13 26 -12
12 1 33 -2 46 -6 15 -5 21 -5 17 2 -3 6 -23 16 -44 23 -20 7 -47 19 -60 27
-12 8 -34 12 -49 9 -25 -5 -83 16 -83 29 0 3 14 3 31 -1 22 -5 29 -4 25 4 -4
6 -14 11 -22 11 -17 0 -54 35 -54 51 0 12 5 9 63 -38z m2348 30 c13 -17 13
-17 -6 -3 -11 8 -22 16 -24 17 -2 2 0 3 6 3 6 0 17 -8 24 -17z m-2502 -30 c0
-33 -1 -35 -9 -15 -8 20 -4 52 6 52 2 0 4 -17 3 -37z m1237 19 c-6 -6 -76 -10
-76 -5 0 2 10 7 22 12 22 8 63 3 54 -7z m1544 -13 c0 -6 -4 -7 -10 -4 -6 4
-11 -6 -11 -22 -2 -25 -2 -25 -6 -5 -6 29 4 55 17 47 5 -3 10 -11 10 -16z
m-2440 7 c0 -2 -8 -10 -17 -17 -16 -13 -17 -12 -4 4 13 16 21 21 21 13z m280
-41 c14 -19 14 -19 -2 -6 -10 7 -18 18 -18 24 0 6 1 8 3 6 1 -2 9 -13 17 -24z
m2214 5 c-26 -27 -65 -35 -57 -12 4 10 8 12 11 4 2 -8 12 -6 29 8 33 26 43 26
17 0z m-2824 -40 c14 -12 18 -18 10 -14 -23 11 -60 46 -60 58 0 5 6 3 13 -6 6
-9 23 -26 37 -38z m62 16 c2 -19 0 -32 -4 -30 -4 3 -8 17 -8 32 0 21 -2 24
-10 12 -5 -8 -10 -10 -10 -4 0 12 10 24 21 24 4 0 9 -15 11 -34z m2642 -17
l-18 -34 -6 25 c-5 16 -1 31 8 43 25 28 36 4 16 -34z m-2335 -23 c6 -4 11 -12
11 -18 0 -17 -63 29 -66 48 -5 33 8 36 26 6 10 -16 23 -33 29 -36z m-246 -17
c-6 -21 -7 -21 -20 -4 -7 11 -13 30 -13 44 l1 26 18 -22 c12 -14 17 -31 14
-44z m497 29 c0 -13 -23 -5 -28 10 -2 7 2 10 12 6 9 -3 16 -11 16 -16z m1584
7 c-4 -8 -18 -15 -33 -15 l-26 1 30 14 c17 7 31 14 32 14 1 1 0 -6 -3 -14z
m745 -9 c10 -6 5 -12 -19 -22 -39 -17 -74 -19 -50 -4 11 7 4 10 -25 9 -39 0
-40 0 -17 -16 30 -21 28 -33 -7 -33 -25 0 -28 3 -23 28 7 42 36 60 86 52 23
-3 48 -10 55 -14z m-3107 -8 c-24 -24 -14 -54 21 -66 29 -9 30 -10 6 -11 -30
-1 -49 16 -49 44 0 19 17 45 29 45 3 0 0 -5 -7 -12z m132 -25 c11 -6 20 -23
21 -42 2 -28 -1 -31 -26 -31 -20 0 -27 4 -23 14 3 8 12 17 20 20 22 8 16 23
-8 21 -13 -2 -22 -8 -20 -14 3 -15 -19 -14 -58 3 l-32 13 22 16 c25 17 74 17
104 0z m2996 -39 c-14 -16 -76 -19 -85 -4 -4 6 5 10 23 8 33 -2 61 16 63 41 1
9 4 6 6 -7 3 -13 -1 -30 -7 -38z m-200 36 c11 -7 8 -11 -15 -21 l-30 -12 38
-7 c47 -9 68 -27 47 -40 -17 -11 -42 -13 -64 -4 -15 6 -15 7 0 19 15 10 11 13
-27 20 -24 4 -37 10 -28 12 10 2 19 13 22 24 5 20 32 25 57 9z m-1730 -15 c0
-6 -56 -35 -67 -35 -4 1 8 9 27 20 39 22 40 22 40 15z m971 -15 c16 0 42 -8
56 -17 24 -16 26 -16 21 -1 -11 27 3 28 37 3 17 -14 46 -28 63 -31 28 -6 30
-4 25 16 -5 18 -2 21 13 18 10 -2 18 -10 16 -17 -1 -7 2 -10 8 -6 5 3 16 3 23
-2 6 -4 26 -8 43 -9 25 0 124 -56 124 -69 0 -2 -26 10 -57 26 -56 30 -61 31
-153 25 -52 -3 -113 -8 -135 -11 -40 -5 -40 -5 -11 9 23 11 25 14 11 19 -26
11 -42 8 -25 -4 11 -8 5 -9 -25 -5 -42 6 -76 35 -74 65 0 10 2 11 6 4 2 -7 18
-13 34 -13z m-1917 -15 c-4 -11 1 -15 17 -16 20 -1 18 -4 -13 -16 -35 -15 -57
-39 -23 -27 8 4 15 4 15 1 0 -12 -74 -26 -85 -17 -7 6 -16 6 -21 2 -5 -4 2 5
15 21 15 16 35 27 50 27 l26 1 -27 15 c-37 20 -35 24 12 24 31 0 38 -3 34 -15z
m739 -2 c-11 -33 -35 -53 -72 -59 -31 -6 -33 -8 -16 -16 14 -5 7 -7 -20 -3
-22 2 -77 8 -123 11 -64 5 -80 10 -72 19 8 9 6 14 -6 19 -9 4 -14 9 -11 12 3
3 17 -2 32 -12 19 -12 25 -13 23 -4 -2 8 5 16 15 18 15 3 18 0 12 -17 -5 -15
-2 -21 10 -21 21 0 68 25 84 44 17 20 31 20 31 1 0 -17 16 -20 25 -5 3 6 21
10 40 10 19 0 37 5 40 10 10 16 15 12 8 -7z m533 0 c-2 -25 54 -29 61 -4 4 16
9 17 34 8 19 -7 27 -17 24 -25 -3 -10 0 -12 10 -8 9 3 25 -4 36 -15 19 -19 20
-23 6 -36 -14 -14 -13 -18 3 -35 10 -11 23 -17 29 -14 17 11 26 -44 10 -56
-10 -7 -11 -11 -2 -14 19 -8 0 -59 -23 -59 -27 0 -49 -32 -34 -50 8 -10 6 -17
-11 -28 -12 -9 -28 -13 -37 -10 -10 4 -13 2 -8 -5 8 -14 -37 -27 -61 -18 -14
6 -15 9 -4 15 9 6 5 10 -14 13 -18 4 -30 0 -37 -12 -9 -15 -16 -16 -35 -7 -13
5 -23 16 -23 23 0 7 -6 11 -13 8 -7 -2 -24 8 -37 22 -19 21 -21 26 -7 21 11
-4 17 -1 17 9 0 27 -21 56 -36 50 -18 -7 -32 43 -14 54 9 6 8 11 -6 20 -14 8
-15 10 -3 6 10 -2 44 -10 78 -17 38 -7 71 -21 86 -35 30 -28 30 -28 56 -13 15
8 24 7 35 -2 12 -10 18 -9 31 4 14 13 14 19 3 32 -7 8 -21 13 -30 10 -11 -3
-20 1 -24 11 -5 13 -15 16 -49 11 -46 -6 -162 14 -180 32 -8 8 -8 11 2 11 7 0
9 5 5 11 -4 7 1 7 16 -1 12 -6 23 -10 24 -8 1 2 8 11 15 21 10 13 11 20 2 31
-9 11 -6 17 14 30 14 9 25 14 25 12 0 -3 12 2 28 10 35 18 40 18 38 -3z m190
-25 l29 -33 -31 28 c-17 15 -34 24 -39 20 -4 -5 -5 -2 -1 5 9 16 8 17 42 -20z
m-551 10 c-11 -6 -29 -20 -39 -30 -21 -19 -36 -23 -36 -10 0 8 70 51 85 51 6
0 1 -5 -10 -11z m830 -35 c11 -7 16 -13 12 -13 -10 0 -87 51 -87 57 0 5 27
-11 75 -44z m750 29 c-3 -3 -11 0 -18 7 -9 10 -8 11 6 5 10 -3 15 -9 12 -12z
m-815 -18 c0 -2 -9 0 -20 6 -11 6 -20 13 -20 16 0 2 9 0 20 -6 11 -6 20 -13
20 -16z m802 0 c10 -10 18 -29 18 -45 0 -23 -3 -26 -21 -22 -11 3 -25 16 -29
29 -12 32 -53 41 -88 20 l-27 -17 27 23 c34 29 94 35 120 12z m112 -15 c31
-37 33 -71 6 -124 -23 -45 -24 -49 -10 -40 17 10 50 83 50 109 0 13 -12 39
-27 57 l-27 32 24 -13 c38 -19 70 -52 69 -69 0 -12 -3 -11 -9 4 -6 14 -9 16
-10 5 -2 -8 -2 -18 -1 -23 3 -17 -28 -74 -52 -96 -25 -22 -27 -23 -33 -6 -5
12 1 33 14 56 27 46 27 57 2 89 l-19 25 11 -43 c9 -38 8 -46 -7 -60 -16 -16
-17 -16 -6 5 17 33 13 38 -8 12 -24 -30 -38 -19 -17 14 19 28 18 87 0 80 -7
-2 -15 0 -19 6 -4 7 4 11 19 11 15 0 34 -12 50 -31z m-928 -7 c-4 -3 -14 2
-24 12 -16 18 -16 18 6 6 13 -6 21 -14 18 -18z m-1252 4 c-3 -8 -19 -17 -36
-20 -17 -3 -47 -18 -67 -33 l-36 -26 24 26 c21 24 95 67 113 67 4 0 5 -6 2
-14z m-397 -24 c-16 -17 -27 -39 -27 -55 0 -29 32 -101 50 -112 15 -9 12 1
-10 37 -11 18 -20 47 -20 65 0 42 43 93 78 93 20 0 23 -3 12 -9 -8 -6 -17 -8
-20 -6 -15 9 -9 -69 6 -86 23 -26 9 -37 -16 -14 -22 20 -28 8 -7 -15 10 -12 9
-12 -6 0 -15 11 -17 21 -12 49 6 31 5 33 -9 22 -22 -18 -20 -46 5 -81 15 -20
20 -36 15 -54 l-6 -26 -36 40 c-23 25 -37 52 -39 72 -2 18 -8 32 -14 31 -30
-7 10 41 54 65 31 17 31 14 2 -16z m237 12 c17 -12 15 -13 -17 -7 -33 5 -38 3
-54 -26 -22 -38 -53 -42 -53 -7 0 14 7 32 16 41 19 18 80 18 108 -1z m496 12
c0 -3 -4 -8 -10 -11 -5 -3 -10 -1 -10 4 0 6 5 11 10 11 6 0 10 -2 10 -4z m898
-19 c10 -8 6 -13 -20 -22 -18 -6 -36 -10 -40 -8 -14 7 -8 33 7 33 8 0 15 5 15
11 0 10 13 5 38 -14z m882 -28 c-15 -27 -19 -22 -12 20 4 27 7 30 14 18 5 -11
5 -25 -2 -38z m-105 30 c12 -18 -3 -22 -20 -5 -14 14 -14 16 -1 16 8 0 18 -5
21 -11z m-2310 -38 c0 -30 -3 -37 -12 -29 -16 13 -17 40 -1 56 7 7 12 12 13
12 0 0 0 -18 0 -39z m1661 -2 c15 -14 32 -19 55 -17 l34 4 -27 12 c-47 20 -32
32 38 30 36 -2 67 -5 70 -9 4 -7 -87 -49 -120 -55 -12 -2 -44 -8 -71 -15 -77
-17 -183 17 -111 35 14 3 32 3 40 0 9 -3 16 -1 16 6 0 6 5 8 11 4 7 -4 7 1 -1
16 -12 22 -11 22 16 16 16 -4 39 -16 50 -27z m355 20 c-14 -5 -31 -15 -39 -21
-10 -9 -12 -8 -10 3 3 14 30 27 58 27 8 1 4 -4 -9 -9z m-1896 -9 c-28 -12 -37
-12 -30 0 3 6 16 10 28 9 21 0 21 -1 2 -9z m585 0 c0 -5 -9 -15 -20 -22 -11
-7 -20 -16 -20 -20 0 -17 39 -6 81 22 46 31 69 37 69 19 0 -5 5 -7 10 -4 6 3
10 1 10 -4 0 -6 -4 -11 -10 -11 -5 0 -10 -5 -10 -11 0 -6 8 -8 18 -5 9 3 31 2
47 -2 28 -8 29 -9 10 -19 -60 -32 -158 -24 -274 24 -43 18 -59 29 -48 32 29
10 137 11 137 1z m875 0 c3 -5 1 -10 -4 -10 -6 0 -11 5 -11 10 0 6 2 10 4 10
3 0 8 -4 11 -10z m645 -28 c65 -32 110 -85 117 -138 6 -50 -13 -77 -56 -77
-38 0 -95 50 -110 97 -8 26 -8 28 2 11 24 -39 85 -95 105 -95 31 0 47 26 34
55 -15 33 -71 67 -99 60 -13 -3 -23 -1 -23 5 0 5 9 10 20 10 31 0 24 20 -7 21
-42 2 -67 -2 -79 -12 -7 -6 -21 -12 -32 -14 -37 -7 -13 23 31 39 38 13 39 15
14 15 -43 1 -81 -23 -97 -63 -7 -20 -17 -36 -22 -36 -4 0 -7 3 -7 8 1 4 1 15
0 25 -2 27 -21 20 -21 -9 0 -14 -4 -23 -9 -20 -5 4 -12 0 -15 -6 -3 -7 -3 -2
0 12 9 38 32 69 67 90 39 24 28 26 -16 3 -18 -9 -38 -16 -45 -14 -8 1 -20 -6
-28 -16 -7 -10 -14 -13 -14 -7 0 13 37 47 70 64 66 35 140 32 220 -8z m55 28
c4 -6 14 -10 23 -9 25 3 82 -21 82 -34 0 -7 -16 -12 -38 -12 -30 -1 -43 6 -65
32 -16 18 -24 33 -19 33 6 0 14 -5 17 -10z m-329 -12 c-1 -7 -14 -31 -29 -53
-15 -22 -27 -45 -27 -52 0 -7 -5 -13 -11 -13 -5 0 -7 -5 -3 -12 5 -7 3 -8 -5
-3 -7 4 -11 18 -8 32 3 15 0 22 -7 20 -16 -5 -19 -43 -5 -69 8 -13 12 -26 11
-30 -1 -5 3 -8 8 -8 6 0 10 -5 10 -11 0 -7 -10 -9 -27 -4 l-28 7 23 -24 c26
-28 30 -60 7 -51 -23 8 -45 57 -45 96 0 65 39 130 100 166 41 25 39 24 36 9z
m-1523 -5 c-7 -2 -19 -2 -25 0 -7 3 -2 5 12 5 14 0 19 -2 13 -5z m-15 -36 c23
-15 46 -37 52 -49 11 -22 10 -22 -4 -4 -9 11 -24 20 -33 21 -10 1 -28 7 -40
13 -34 19 -38 14 -9 -9 33 -26 75 -102 47 -84 -5 3 -12 -3 -15 -12 -4 -15 -5
-15 -4 2 1 40 -2 55 -11 55 -5 0 -11 -12 -13 -27 l-4 -28 -19 37 c-10 22 -32
44 -51 53 -37 17 -64 20 -64 5 0 -5 11 -10 24 -10 38 0 71 -40 46 -55 -6 -4
-7 1 -3 11 4 11 3 15 -5 10 -6 -3 -25 2 -42 13 -29 17 -51 18 -90 4 -11 -4 -9
-7 8 -12 33 -9 27 -26 -8 -23 -23 3 -38 -4 -60 -26 -33 -33 -38 -63 -15 -82
26 -22 75 12 122 86 10 16 11 14 2 -11 -17 -49 -68 -95 -105 -95 -39 0 -54 17
-56 61 -2 66 43 125 127 166 70 33 164 29 223 -10z m83 8 c97 -62 125 -205 49
-254 -23 -14 -24 -14 -13 0 7 9 10 19 5 23 -4 4 1 12 11 17 25 15 21 30 -7 23
-21 -5 -24 -3 -19 15 3 11 11 26 19 32 16 13 19 65 4 74 -6 3 -10 -4 -10 -18
0 -41 -12 -39 -32 6 -11 23 -29 53 -41 66 l-22 24 30 -18 30 -17 -28 26 c-35
33 -28 33 24 1z m1873 -35 c16 0 15 -38 -1 -44 -7 -3 -13 1 -13 8 0 8 -5 16
-12 18 -7 3 -9 11 -4 24 6 12 10 15 13 7 3 -7 10 -13 17 -13z m-394 -11 c-7
-11 -14 -18 -17 -15 -3 3 0 12 7 21 18 21 23 19 10 -6z m462 -20 c3 -16 3 -29
0 -29 -10 0 -39 46 -35 57 8 21 31 3 35 -28z m-2372 -5 c0 -8 -4 -14 -10 -14
-5 0 -7 -7 -3 -16 4 -11 2 -15 -7 -12 -20 6 -33 48 -15 48 8 0 15 5 15 11 0 5
5 7 10 4 6 -3 10 -13 10 -21z m390 -27 c0 -12 0 -11 -24 28 l-17 30 20 -24
c12 -13 21 -28 21 -34z m1825 -12 c30 -30 32 -55 5 -55 -23 0 -70 45 -70 66 0
22 39 16 65 -11z m121 10 c-4 -10 1 -14 16 -12 29 3 34 -21 6 -32 -12 -6 -19
-10 -15 -10 5 -1 5 -6 2 -11 -5 -8 -11 -7 -21 1 -7 6 -11 15 -8 20 3 5 0 9 -5
9 -15 0 -14 23 1 38 17 17 31 15 24 -3z m-2373 -29 c18 -14 18 -15 0 -25 -17
-9 -17 -11 2 -25 14 -12 15 -14 4 -10 -10 3 -20 0 -24 -5 -3 -6 -11 -9 -16 -5
-5 3 -7 10 -4 15 4 5 0 9 -8 9 -8 0 -17 7 -21 15 -5 14 5 19 31 16 8 -1 10 5
7 14 -7 19 5 19 29 1z m157 -1 c0 -23 -47 -67 -67 -63 -27 5 -26 26 1 53 28
28 66 34 66 10z m1494 -16 c-43 -45 -165 -124 -229 -148 -84 -32 -90 -25 -8 9
86 35 141 68 208 127 58 50 71 56 29 12z m-1043 -41 c13 -18 16 -29 9 -33 -7
-4 -14 2 -17 14 -3 12 -9 21 -14 21 -5 0 -8 15 -8 33 1 21 3 25 6 12 3 -11 14
-32 24 -47z m1330 39 c-10 -9 -11 -8 -5 6 3 10 9 15 12 12 3 -3 0 -11 -7 -18z
m-1524 -9 c-3 -8 -6 -5 -6 6 -1 11 2 17 5 13 3 -3 4 -12 1 -19z m298 2 c63
-70 237 -151 363 -169 44 -7 49 -9 21 -10 -56 -2 -183 35 -257 74 -67 35 -161
103 -162 118 0 13 17 7 35 -13z m1449 -29 c15 -17 15 -19 -1 -32 -15 -12 -16
-12 -11 2 5 13 2 16 -15 11 -19 -5 -20 -3 -10 10 7 8 10 18 6 21 -3 4 -2 7 4
7 5 0 17 -8 27 -19z m204 -10 c24 -13 31 -37 7 -27 -8 3 -15 1 -15 -4 0 -6 5
-10 10 -10 6 0 10 -9 10 -20 0 -23 -28 -27 -36 -5 -4 8 -10 15 -15 15 -5 0 -9
-7 -9 -15 0 -8 -4 -15 -10 -15 -5 0 -10 8 -10 18 0 10 -6 24 -12 30 -10 10 -8
12 7 9 11 -1 26 -6 33 -10 6 -5 12 -4 12 0 0 5 -6 15 -12 22 -11 10 -9 11 7 5
16 -6 18 -5 8 7 -7 7 -13 18 -13 24 0 6 3 6 8 -1 4 -6 17 -16 30 -23z m-565
-40 c6 -9 2 -8 -11 3 -12 11 -22 29 -21 40 0 19 1 19 10 -3 5 -14 15 -32 22
-40z m-1581 42 c-10 -4 -10 -8 -1 -19 9 -11 8 -14 -5 -14 -9 0 -16 -5 -16 -12
0 -9 -3 -9 -11 -1 -12 12 17 54 36 52 5 0 4 -3 -3 -6z m1488 -28 c9 -24 30
-35 30 -15 0 17 14 10 34 -16 l18 -26 -21 12 c-28 15 -53 -3 -49 -35 1 -12 -5
-30 -15 -39 -16 -17 -17 -15 -17 36 0 29 -4 60 -10 68 -5 9 -5 19 2 27 14 18
17 17 28 -12z m-1690 0 c-10 -12 -10 -15 0 -15 9 0 9 -4 -1 -17 -10 -11 -10
-14 -2 -9 7 4 21 9 32 11 16 3 18 -1 12 -23 -8 -30 -31 -42 -31 -15 -1 17 -1
17 -14 1 -7 -10 -18 -18 -25 -18 -15 0 -14 33 2 49 10 11 9 13 -5 8 -28 -10
-21 11 10 27 35 19 37 19 22 1z m564 -10 c-3 -7 -12 -16 -19 -19 -11 -4 -12 0
-3 19 11 25 31 25 22 0z m1655 -2 c28 6 36 -7 25 -43 -5 -13 -6 -13 -14 0 -8
13 -12 12 -24 -5 -13 -17 -17 -18 -25 -5 -5 8 -7 18 -5 22 3 4 -2 8 -11 8 -14
0 -14 3 2 24 14 18 19 21 21 9 3 -11 12 -14 31 -10z m-1570 -69 c0 -56 -2 -64
-14 -54 -22 18 -55 3 -55 -25 0 -28 41 -60 64 -52 8 3 17 1 20 -6 3 -8 14 -2
30 16 14 15 26 24 26 19 0 -5 -11 -19 -25 -32 -14 -13 -24 -32 -23 -41 2 -9
-5 -26 -15 -37 -10 -11 -19 -32 -21 -47 -2 -15 -9 -31 -17 -36 -12 -8 -12 -11
1 -19 12 -9 10 -10 -10 -8 -17 2 -26 10 -28 26 -3 20 -9 22 -61 22 -63 0 -77
6 -60 27 9 10 7 13 -9 13 -29 0 -41 -28 -38 -84 4 -48 27 -86 54 -86 9 0 13
-3 9 -6 -11 -11 -78 18 -92 39 -14 23 -14 68 -1 100 28 62 -50 107 -105 60
-15 -12 -16 -11 -12 12 4 17 12 25 25 25 11 0 22 9 25 20 3 11 12 20 20 20 8
0 21 7 29 15 9 8 21 15 27 15 8 0 7 -4 -1 -12 -7 -7 -12 -24 -12 -39 0 -31 40
-69 74 -69 27 0 86 36 86 52 0 7 7 2 16 -10 19 -28 60 -29 74 -1 14 26 -4 52
-30 44 -15 -5 -19 2 -25 35 -6 36 -4 44 19 65 22 21 25 28 16 45 -11 20 -50
28 -50 10 0 -5 -5 -10 -11 -10 -6 0 0 13 13 29 17 22 26 26 36 18 11 -8 16 -7
24 6 16 30 26 9 27 -59z m1381 42 c21 -14 48 -40 60 -58 22 -31 21 -31 -16 7
-23 23 -61 48 -90 58 -53 19 -88 22 -80 8 6 -10 -24 -25 -32 -16 -3 3 0 5 6 5
7 0 12 7 12 16 0 25 93 11 140 -20z m-1879 -14 c-6 -2 -11 -15 -11 -28 0 -28
-14 -31 -30 -6 -8 12 -13 13 -16 4 -9 -20 -24 -3 -23 26 0 15 3 22 5 15 4 -9
11 -9 29 -1 14 6 21 16 18 22 -4 6 4 2 16 -9 12 -11 18 -21 12 -23z m1498 -23
c0 -28 6 -58 12 -65 14 -17 45 -18 53 -1 3 6 4 3 3 -8 -2 -15 -10 -20 -32 -19
-66 1 -93 26 -74 68 9 20 9 29 -1 41 -11 13 -10 18 6 29 27 20 31 13 33 -45z
m-1216 32 c3 -14 0 -17 -14 -14 -10 3 -16 9 -13 14 8 14 -16 11 -69 -8 -30
-11 -64 -34 -88 -60 -21 -23 -39 -38 -39 -33 0 20 89 99 122 109 57 16 95 13
101 -8z m273 -48 c1 -15 5 -38 8 -51 3 -13 1 -20 -5 -17 -5 4 -9 2 -9 -2 0
-13 -65 -34 -84 -27 -9 3 -16 12 -16 20 0 12 4 12 20 2 29 -19 52 15 45 65 -4
27 -2 36 6 31 8 -4 9 1 4 17 -7 23 -6 23 10 7 10 -9 19 -29 21 -45z m1314 21
c0 -2 -13 2 -30 11 -16 9 -30 18 -30 21 0 2 14 -2 30 -11 17 -9 30 -18 30 -21z
m-259 -11 c10 3 17 1 13 -4 -7 -12 -41 -11 -49 1 -3 6 -3 16 2 23 5 9 9 7 11
-6 3 -13 10 -17 23 -14z m64 2 c-22 -21 -26 -33 -23 -60 2 -18 0 -31 -4 -29
-4 3 -8 20 -8 39 0 24 7 39 26 54 37 29 43 26 9 -4z m-1499 0 c-11 -8 -25 -15
-30 -15 -6 1 0 7 14 15 32 19 40 18 16 0z m1274 11 c0 -2 -7 -17 -15 -32 l-15
-29 0 26 c0 14 3 29 7 32 7 8 23 9 23 3z m-1080 -41 c24 -29 5 -23 -25 8 -20
20 -23 27 -9 19 11 -6 27 -18 34 -27z m70 21 c0 -21 -20 -30 -33 -16 -9 9 -8
11 3 8 8 -2 14 3 13 10 -2 6 2 12 7 12 6 0 10 -6 10 -14z m160 -30 c-1 -20 -2
-20 -15 4 -19 33 -19 46 0 30 8 -7 15 -22 15 -34z m1176 28 c-9 -8 -16 -21
-16 -27 0 -7 -5 -4 -11 6 -13 22 -4 37 22 37 19 0 19 -1 5 -16z m111 -5 c15
-5 40 -24 56 -40 22 -25 27 -39 27 -83 0 -29 -8 -75 -17 -102 l-18 -49 -5 65
c-3 39 -12 76 -24 93 -10 15 -14 27 -8 27 15 0 42 -41 42 -62 0 -10 5 -18 10
-18 29 0 -11 89 -50 110 -12 6 -27 9 -35 7 -7 -3 -17 -1 -23 5 -7 7 -17 6 -31
-2 -23 -12 -45 -5 -35 11 3 6 16 14 28 19 20 8 20 9 1 10 l-20 1 20 9 c28 12
49 12 82 -1z m-1618 -13 c9 -11 9 -15 -1 -19 -10 -4 -8 -10 7 -22 24 -19 37
-15 52 15 11 22 13 23 19 6 5 -12 2 -23 -9 -31 -23 -17 -21 -31 6 -50 22 -16
22 -16 3 -30 -28 -21 -35 -19 -33 12 1 20 -4 31 -19 37 -11 5 -26 23 -34 40
-7 17 -20 37 -28 44 -14 10 -13 12 5 12 11 0 26 -6 32 -14z m881 4 c-14 -4
-41 -8 -60 -8 l-35 1 40 7 c57 10 87 10 55 0z m223 -37 c-3 -28 1 -66 10 -90
8 -23 12 -55 9 -70 -4 -24 -7 -18 -18 32 -7 33 -13 83 -14 110 0 36 -3 46 -10
35 -8 -13 -10 -13 -10 2 0 14 12 25 31 27 3 1 4 -20 2 -46z m-1175 30 c18 -4
20 -8 10 -14 -10 -7 -10 -9 0 -9 6 0 12 -7 12 -15 0 -8 5 -15 11 -15 5 0 7 5
3 12 -5 7 -3 8 5 3 23 -13 -4 -28 -29 -15 -16 9 -25 9 -35 0 -8 -7 -19 -9 -25
-5 -30 18 -106 -83 -82 -107 7 -7 12 1 17 20 3 17 12 36 19 41 14 12 46 5 46
-10 0 -4 -6 -6 -14 -3 -27 10 -47 -42 -42 -111 3 -36 4 -65 2 -65 -11 0 -46
131 -46 173 0 42 4 52 31 75 28 24 74 50 89 51 3 1 16 -2 28 -6z m99 -15 c-3
-8 -6 -5 -6 6 -1 11 2 17 5 13 3 -3 4 -12 1 -19z m1145 -65 c12 -13 18 -23 14
-23 -5 0 -3 -7 4 -15 17 -20 1 -19 -22 2 -10 9 -18 11 -18 5 0 -5 18 -25 39
-43 47 -38 57 -65 29 -72 -11 -3 -17 -3 -14 0 3 3 -10 23 -29 44 -37 41 -55
92 -55 154 l1 40 15 -35 c8 -19 25 -45 36 -57z m284 51 c18 5 22 3 18 -9 -4
-8 -12 -15 -20 -15 -21 0 -38 -38 -23 -56 9 -11 8 -14 -3 -14 -15 0 -38 19
-38 32 0 4 6 8 14 8 21 0 30 33 12 46 -9 6 -16 20 -16 30 0 16 2 16 16 -5 12
-17 22 -21 40 -17z m-1105 -80 c-8 -35 -23 -62 -49 -89 -20 -21 -30 -35 -22
-30 8 4 12 4 7 0 -4 -5 -19 -9 -33 -10 -21 -1 -23 1 -10 11 9 6 13 13 10 16
-3 4 13 21 35 39 23 18 41 39 41 48 -1 14 -2 14 -14 -1 -7 -10 -19 -18 -26
-18 -10 0 -9 4 1 17 12 15 12 16 -1 8 -8 -4 -3 5 12 21 15 16 33 45 40 64 l13
35 3 -30 c2 -16 -1 -53 -7 -81z m39 50 c0 -61 -18 -136 -31 -129 -4 3 0 26 8
52 8 27 12 67 10 91 -3 23 -1 42 4 42 5 0 9 -25 9 -56z m373 49 c-13 -2 -33
-2 -45 0 -13 2 -3 4 22 4 25 0 35 -2 23 -4z m567 -3 c0 -5 -2 -10 -4 -10 -3 0
-8 5 -11 10 -3 6 -1 10 4 10 6 0 11 -4 11 -10z m-923 -22 c-3 -8 -6 -5 -6 6
-1 11 2 17 5 13 3 -3 4 -12 1 -19z m-301 -33 c-6 -17 -36 -21 -36 -5 0 5 7 7
15 4 11 -4 15 1 16 17 0 13 3 18 6 11 3 -7 2 -19 -1 -27z m892 -2 c-11 -41
-25 -63 -15 -25 3 12 1 22 -5 22 -5 0 -6 5 -2 12 4 7 3 8 -5 4 -6 -4 -8 -12
-5 -18 4 -6 2 -8 -3 -5 -12 7 -46 -26 -37 -36 3 -3 -4 -11 -16 -17 -30 -16
-34 -8 -9 23 14 19 16 27 7 27 -15 1 71 49 89 50 8 0 9 -10 1 -37z m-441 2
c48 -12 72 -30 31 -23 l-26 5 21 -28 c25 -34 17 -49 -11 -21 -11 11 -23 17
-27 14 -3 -4 -3 1 1 11 4 12 1 17 -10 17 -9 0 -16 7 -16 15 0 8 -5 15 -11 15
-5 0 -7 -4 -4 -10 3 -5 2 -10 -4 -10 -6 0 -8 -8 -4 -17 3 -10 3 -15 -1 -12 -4
4 -11 21 -16 38 -8 30 -8 32 13 25 12 -4 41 -13 64 -19z m696 -19 c23 4 48 13
55 22 6 9 12 12 12 6 0 -17 -15 -32 -35 -35 -26 -5 -32 -39 -9 -56 25 -18 41
-16 64 7 11 11 20 16 20 10 0 -14 55 -40 86 -40 55 0 96 73 62 109 -7 7 6 3
30 -9 23 -12 42 -26 42 -31 0 -5 11 -14 25 -19 14 -5 25 -17 25 -25 0 -15 -2
-15 -22 -1 -32 22 -55 20 -84 -9 -21 -21 -23 -28 -14 -46 16 -29 20 -89 9
-111 -5 -10 -23 -25 -39 -33 -32 -17 -55 -20 -27 -4 19 11 52 69 39 69 -4 0
-6 16 -4 35 5 39 -11 65 -38 65 -13 0 -17 -6 -13 -20 5 -17 0 -20 -28 -21 -19
-1 -41 -3 -49 -4 -8 -1 -21 -3 -29 -4 -7 0 -11 -7 -7 -16 3 -8 -3 -19 -14 -25
-27 -14 -34 -12 -20 5 10 12 10 15 -4 15 -11 0 -16 9 -16 30 0 19 -9 40 -23
53 -12 13 -21 30 -19 38 1 8 -9 26 -23 39 -14 13 -25 28 -25 34 0 6 7 0 16
-12 13 -19 21 -21 57 -16z m-561 -16 l22 -20 -27 0 c-15 0 -27 5 -27 10 0 6
-9 10 -20 10 -11 0 -20 5 -20 10 0 18 50 11 72 -10z m156 8 c-16 -5 -28 -14
-28 -19 0 -5 -11 -9 -25 -9 -14 0 -25 5 -25 10 0 6 7 10 15 10 8 0 15 5 15 10
0 6 17 10 38 9 36 -1 37 -1 10 -11z m936 -4 c-19 -16 -17 -16 33 0 19 6 22 4
17 -9 -5 -11 -16 -15 -39 -13 -32 2 -65 -15 -65 -34 0 -6 6 -6 14 1 12 10 13
9 10 -6 -6 -21 -54 -59 -54 -43 0 6 7 13 16 17 9 3 13 12 9 21 -6 16 50 82 69
82 5 0 1 -7 -10 -16z m140 -2 c2 -4 -4 -8 -14 -8 -10 0 -16 4 -14 8 3 4 9 8
14 8 5 0 11 -4 14 -8z m-2210 -23 c34 -27 50 -56 31 -56 -8 0 -14 3 -13 6 2
22 -6 34 -34 51 -18 11 -28 20 -22 20 6 0 23 -9 38 -21z m1039 0 c5 -17 12
-20 54 -17 34 2 52 -1 60 -12 11 -13 17 -12 53 7 33 18 40 19 40 6 0 -10 6
-14 20 -10 29 8 24 -10 -7 -25 -17 -9 -27 -20 -25 -31 2 -9 -9 -33 -24 -52
-21 -28 -29 -33 -41 -24 -20 17 -28 3 -15 -26 14 -30 54 -42 89 -26 14 7 28
10 30 7 8 -8 -55 -36 -82 -36 -14 0 -28 -7 -31 -15 -4 -8 -14 -15 -24 -15 -10
0 -23 -6 -30 -14 -6 -8 -18 -12 -26 -9 -17 6 -19 -22 -3 -33 19 -11 -12 -24
-59 -24 -39 0 -42 2 -32 19 14 27 13 44 -2 38 -15 -5 -69 22 -81 41 -4 6 -25
12 -46 12 -25 0 -47 7 -62 21 -23 19 -23 20 -2 10 48 -24 113 -6 113 30 0 15
-5 19 -19 14 -23 -7 -74 55 -65 79 4 11 -2 19 -19 25 -34 13 -41 28 -14 27 16
-1 21 4 19 18 -3 17 -2 17 24 -3 31 -24 79 -29 71 -7 -5 12 0 12 26 5 43 -12
103 6 86 27 -9 11 -8 14 4 14 8 0 17 -9 20 -21z m551 -5 c3 -8 2 -12 -4 -9 -6
3 -10 10 -10 16 0 14 7 11 14 -7z m-1724 2 c0 -2 -7 -7 -16 -10 -8 -3 -12 -2
-9 4 6 10 25 14 25 6z m123 -16 c5 -4 -6 -7 -24 -6 -18 1 -34 7 -37 14 -3 9 4
11 25 6 15 -4 32 -10 36 -14z m1797 16 c0 -2 -8 -10 -17 -17 -16 -13 -17 -12
-4 4 13 16 21 21 21 13z m-1310 -16 c0 -5 -8 -10 -17 -10 -15 0 -16 2 -3 10
19 12 20 12 20 0z m-176 -29 c-2 -3 -12 3 -22 13 -16 17 -16 18 5 5 12 -7 20
-15 17 -18z m1016 -20 c-10 -36 -47 -88 -69 -96 -10 -4 -6 5 10 22 14 15 31
37 39 47 14 18 13 18 -10 11 -23 -7 -23 -6 5 18 17 15 31 27 32 27 1 0 -2 -13
-7 -29z m-530 -27 c0 -2 -7 -1 -15 2 -24 10 -17 -8 17 -43 18 -18 27 -33 20
-33 -14 0 -72 77 -72 97 0 11 5 10 25 -3 14 -9 25 -18 25 -20z m1131 -45 c-5
-22 -17 -49 -27 -60 -9 -10 -14 -22 -10 -26 7 -8 14 1 49 61 9 17 17 24 17 16
0 -12 9 -2 34 36 1 1 12 5 26 8 l25 7 -24 -19 c-17 -14 -20 -21 -10 -24 9 -3
8 -6 -5 -11 -11 -5 -15 -3 -10 5 4 7 3 8 -4 4 -6 -4 -8 -14 -5 -22 4 -12 15
-15 40 -11 29 5 31 4 19 -9 -8 -8 -19 -14 -23 -13 -25 4 -63 -2 -59 -10 5 -8
-105 -52 -165 -66 -35 -8 -46 10 -17 26 33 17 78 61 78 76 0 7 5 13 10 13 19
0 10 -20 -26 -60 -41 -46 -36 -52 13 -14 44 33 63 72 64 131 0 40 2 44 10 25
5 -14 5 -39 0 -63z m-1847 34 c8 -19 2 -16 -25 13 -23 25 -23 26 -2 13 13 -7
25 -19 27 -26z m78 -7 c-6 -50 28 -118 72 -144 20 -12 36 -20 36 -18 0 2 -13
17 -30 34 -16 18 -30 39 -30 47 0 23 8 18 25 -15 8 -16 32 -39 53 -49 20 -11
30 -20 22 -21 -13 0 -13 -1 0 -10 20 -14 -42 -2 -95 17 -22 8 -58 18 -80 23
-22 4 -34 8 -27 9 6 0 12 6 12 12 0 6 -9 9 -20 6 -11 -3 -35 -2 -53 3 -19 4
-43 3 -53 -2 -17 -8 -17 -7 1 7 14 11 32 14 57 11 23 -3 40 0 47 8 13 15 5 27
-14 20 -7 -3 -16 0 -21 7 -5 9 -2 10 12 6 15 -6 13 -2 -6 15 -18 15 -20 19 -7
15 10 -4 22 -7 27 -7 5 0 12 -9 15 -20 3 -11 12 -20 18 -20 7 -1 24 -19 39
-40 15 -22 33 -40 38 -40 6 0 -1 16 -15 35 -27 34 -43 100 -32 130 10 24 13
17 9 -19z m493 -18 c-10 -18 -35 -54 -57 -80 -21 -27 -35 -48 -30 -48 13 0 82
77 82 92 0 6 3 9 6 5 11 -11 -36 -76 -72 -98 -19 -12 -37 -19 -40 -16 -9 9 16
49 61 98 23 25 46 56 50 68 4 12 9 20 12 18 2 -3 -3 -20 -12 -39z m809 26 c3
-8 2 -12 -4 -9 -6 3 -10 10 -10 16 0 14 7 11 14 -7z m416 -4 c0 -5 -4 -10 -10
-10 -5 0 -10 5 -10 10 0 6 5 10 10 10 6 0 10 -4 10 -10z m-1660 -20 c0 -5 -5
-10 -11 -10 -5 0 -7 5 -4 10 3 6 8 10 11 10 2 0 4 -4 4 -10z m1317 -103 c19
-38 12 -43 -29 -20 -35 19 -47 31 -73 76 -23 38 -11 34 13 -5 12 -18 36 -42
54 -52 33 -20 33 -20 -10 30 -63 70 -73 97 -17 44 25 -25 53 -58 62 -73z
m-1161 73 c13 0 26 -5 29 -10 4 -6 10 -8 14 -6 4 3 8 -1 8 -9 0 -24 -34 -17
-65 13 -15 15 -23 24 -18 20 6 -5 20 -8 32 -8z m1364 15 c0 -10 -65 -45 -84
-45 -16 0 -13 5 14 25 30 22 70 34 70 20z m8 -24 c-23 -30 -55 -48 -65 -38 -3
3 8 12 24 21 16 8 35 22 42 30 24 29 23 17 -1 -13z m-461 -6 c-28 -25 -54 -34
-42 -15 3 6 12 10 19 10 8 0 19 7 26 15 7 8 15 15 19 15 3 0 -7 -12 -22 -25z
m87 0 c4 -14 11 -23 16 -20 6 3 10 -3 10 -14 0 -12 -4 -21 -10 -21 -10 0 -40
52 -40 70 0 20 18 9 24 -15z m-649 -12 c-3 -16 -13 -35 -21 -43 -12 -12 -14
-12 -14 2 0 9 5 20 10 23 6 3 10 15 10 26 0 10 5 19 11 19 7 0 9 -10 4 -27z
m-306 -40 c2 -2 -5 -3 -16 -3 -10 0 -35 14 -54 31 l-34 32 50 -28 c28 -16 52
-30 54 -32z m399 41 c18 -8 32 -17 32 -19 0 -7 -60 17 -66 26 -7 12 -2 11 34
-7z m809 0 c-3 -3 -12 -4 -19 -1 -8 3 -5 6 6 6 11 1 17 -2 13 -5z m468 -4 c3
-6 -1 -7 -9 -4 -18 7 -21 14 -7 14 6 0 13 -4 16 -10z m-1620 -10 c-3 -5 -14
-10 -23 -10 -15 0 -15 2 -2 10 20 13 33 13 25 0z m841 -28 c-36 -101 -81 -159
-148 -186 -29 -13 -38 -13 -47 -2 -8 10 -3 13 24 14 20 1 43 5 51 10 10 5 -6
7 -42 4 -41 -3 -55 -2 -50 7 4 6 31 11 61 11 30 0 57 5 61 11 4 7 0 9 -12 5
-11 -3 -32 -2 -49 3 -30 9 -30 9 10 10 22 1 54 10 70 21 17 11 26 20 20 20 -5
-1 -19 -7 -29 -15 -26 -19 -57 -20 -50 -1 3 8 15 16 26 19 11 3 18 10 14 15
-3 5 10 16 29 25 19 9 42 28 51 42 23 35 25 31 10 -13z m-479 -39 c19 -7 31
-18 28 -23 -3 -6 5 -15 19 -21 14 -7 23 -16 20 -20 -3 -5 10 -9 28 -10 32 0
32 -1 8 -10 -14 -6 -37 -9 -52 -6 -23 3 -26 1 -16 -11 9 -10 25 -13 53 -9 22
3 49 1 60 -3 18 -8 18 -9 -5 -11 -69 -5 -113 0 -130 16 -20 18 -74 117 -84
155 -7 25 -7 24 15 -4 12 -16 38 -35 56 -43z m-8 -105 c34 -39 96 -72 154 -83
20 -4 37 -11 37 -17 0 -5 5 -6 10 -3 6 4 22 -1 35 -9 14 -9 25 -12 25 -7 0 12
-102 61 -127 61 -10 1 -31 7 -48 15 -30 13 -30 13 15 8 30 -3 59 0 84 11 33
14 37 14 26 1 -11 -13 -8 -15 16 -16 17 -1 22 -3 12 -6 -30 -8 -20 -20 15 -17
17 2 24 1 15 -2 -23 -7 -22 -10 2 -41 11 -14 20 -33 20 -42 -1 -14 -2 -14 -11
2 -6 9 -15 15 -20 11 -5 -3 -16 0 -24 6 -8 7 -33 14 -56 15 l-40 3 16 -24 c13
-20 13 -24 1 -24 -8 0 -22 7 -30 16 -15 14 -17 21 -15 41 1 7 -28 21 -47 22
-6 1 -9 -11 -6 -29 5 -36 -8 -38 -34 -8 -14 17 -15 19 -2 10 16 -13 16 -11 2
25 -9 21 -27 52 -41 68 l-25 30 6 -37 c4 -20 2 -39 -3 -42 -13 -8 -41 56 -41
94 0 28 2 31 15 20 18 -15 19 -1 1 23 -16 21 -26 22 -26 3 0 -7 -7 -19 -15
-26 -13 -10 -15 -9 -15 8 0 12 4 23 9 27 5 3 12 19 16 36 7 30 7 30 35 -29 15
-32 42 -74 59 -94z m1176 142 c3 -6 -1 -7 -9 -4 -18 7 -21 14 -7 14 6 0 13 -4
16 -10z m-645 -36 c0 -8 5 -14 10 -14 6 0 10 -10 10 -22 -1 -22 -1 -22 -23 4
-22 27 -23 27 -35 8 -16 -26 -15 -31 3 -24 20 8 20 -34 0 -82 -18 -45 -38 -36
-29 13 5 26 4 34 -5 29 -6 -4 -11 -13 -11 -20 0 -8 -6 -19 -14 -25 -11 -10
-20 -36 -27 -79 0 -4 -5 -13 -11 -19 -16 -20 -31 -3 -24 28 3 16 2 29 -2 29
-16 0 -43 -26 -46 -43 -4 -26 -15 -25 -30 4 -13 25 -12 26 36 43 61 22 118 78
149 150 18 41 27 52 37 44 6 -6 12 -17 12 -24z m76 -37 l6 -44 -32 5 c-22 3
-28 8 -21 15 6 6 11 23 11 38 0 15 3 35 6 44 6 15 8 15 16 2 4 -9 11 -35 14
-60z m76 25 c3 8 9 4 18 -12 12 -23 12 -24 -3 -11 -22 18 -22 3 1 -23 l17 -21
-24 20 c-13 11 -32 34 -44 50 l-21 30 26 -23 c19 -17 27 -20 30 -10z m181 11
c-7 -2 -19 -2 -25 0 -7 3 -2 5 12 5 14 0 19 -2 13 -5z m-1084 -25 c-6 -13 -22
-32 -37 -43 -25 -18 -25 -16 6 23 38 47 47 53 31 20z m1066 6 c45 -5 98 -30
101 -46 2 -14 -4 -13 -36 8 -40 27 -84 26 -74 -1 3 -7 0 -16 -7 -21 -8 -4 -10
-3 -5 4 4 6 0 26 -9 43 -12 21 -13 29 -4 23 7 -4 22 -9 34 -10z m-1258 0 c-3
-3 -12 -4 -19 -1 -8 3 -5 6 6 6 11 1 17 -2 13 -5z m42 -10 c-8 -10 -20 -29
-27 -43 -7 -14 -10 -18 -7 -8 2 9 0 17 -6 17 -6 0 -13 -9 -16 -21 -4 -12 -9
-16 -12 -10 -5 7 -14 5 -27 -7 -10 -9 -32 -26 -49 -36 l-30 -19 25 28 c21 23
147 114 159 115 2 0 -3 -7 -10 -16z m107 -12 c-18 -16 -18 -16 -6 6 6 13 14
21 18 18 3 -4 -2 -14 -12 -24z m-181 -14 c-22 -11 -59 -39 -83 -62 -24 -22
-40 -33 -37 -24 4 9 17 24 31 32 13 9 21 22 18 29 -3 9 11 19 43 30 66 22 76
20 28 -5z m1103 -19 c-3 -8 -7 -3 -11 10 -4 17 -3 21 5 13 5 -5 8 -16 6 -23z
m230 17 c15 -8 43 -31 62 -52 30 -33 31 -35 6 -16 -15 12 -32 19 -37 16 -5 -3
-9 1 -9 9 0 17 -40 30 -41 14 0 -7 -4 -3 -9 8 -17 39 -13 42 28 21z m-1105
-11 c-3 -9 -8 -14 -10 -11 -3 3 -2 9 2 15 9 16 15 13 8 -4z m907 -47 c0 -47
-15 -38 -16 9 -1 29 2 40 7 32 5 -8 9 -26 9 -41z m-919 7 c5 4 9 -1 9 -9 0 -8
12 -24 26 -35 18 -15 22 -21 11 -21 -17 0 -47 26 -47 41 0 5 -5 9 -11 9 -6 0
-9 -9 -6 -20 3 -11 1 -18 -4 -14 -11 6 -12 45 -2 71 7 16 8 16 11 -5 2 -12 8
-20 13 -17z m889 -4 c0 -24 -25 -51 -47 -51 -11 0 -7 6 11 21 14 11 26 27 26
35 0 8 2 14 5 14 3 0 5 -9 5 -19z m328 -1 c7 -11 11 -20 9 -20 -2 0 -12 9 -22
20 -10 11 -14 20 -9 20 5 0 15 -9 22 -20z"/>
<path d="M2944 2765 c-9 -22 1 -29 15 -11 8 10 9 16 1 21 -5 3 -13 -1 -16 -10z"/>
<path d="M590 2609 c0 -5 5 -7 10 -4 6 3 10 8 10 11 0 2 -4 4 -10 4 -5 0 -10
-5 -10 -11z"/>
<path d="M1227 2363 c-10 -9 -8 -33 2 -33 5 0 11 9 14 20 5 20 -3 26 -16 13z"/>
<path d="M2137 2350 c3 -11 7 -20 9 -20 2 0 4 9 4 20 0 11 -4 20 -9 20 -5 0
-7 -9 -4 -20z"/>
<path d="M1682 2207 c-15 -18 26 -83 42 -67 8 8 7 14 -4 21 -12 8 -10 9 7 4
16 -4 23 -1 28 16 8 24 -13 45 -29 29 -13 -13 -29 -13 -21 0 9 15 -11 12 -23
-3z m55 -19 c-3 -8 -6 -5 -6 6 -1 11 2 17 5 13 3 -3 4 -12 1 -19z"/>
<path d="M1400 2145 c0 -8 4 -15 9 -15 5 0 11 -8 14 -17 4 -17 4 -17 12 0 4
10 2 23 -5 32 -16 19 -30 19 -30 0z"/>
<path d="M1650 2145 c0 -9 4 -24 9 -33 5 -9 12 -48 15 -86 4 -38 7 -70 9 -71
1 -1 18 -5 37 -8 l35 -5 1 82 c1 82 -4 96 -38 96 -15 0 -16 -9 -13 -72 4 -61
3 -66 -5 -33 -5 22 -9 55 -9 73 -1 17 -5 32 -11 32 -5 0 -10 6 -10 14 0 8 -4
18 -10 21 -5 3 -10 -1 -10 -10z m87 -92 c-3 -10 -5 -2 -5 17 0 19 2 27 5 18 2
-10 2 -26 0 -35z"/>
<path d="M1590 2136 c0 -9 5 -16 10 -16 6 0 10 4 10 9 0 6 -4 13 -10 16 -5 3
-10 -1 -10 -9z"/>
<path d="M1760 2134 c0 -8 5 -12 10 -9 6 3 10 10 10 16 0 5 -4 9 -10 9 -5 0
-10 -7 -10 -16z"/>
<path d="M1526 2132 c-3 -6 -1 -14 5 -17 14 -9 20 -2 10 14 -6 8 -11 9 -15 3z"/>
<path d="M1820 2119 c0 -11 5 -17 10 -14 6 3 10 13 10 21 0 8 -4 14 -10 14 -5
0 -10 -9 -10 -21z"/>
<path d="M1462 2108 c2 -6 10 -14 16 -16 7 -2 10 2 6 12 -7 18 -28 22 -22 4z"/>
<path d="M1876 2111 c-4 -7 -5 -15 -2 -18 9 -9 19 4 14 18 -4 11 -6 11 -12 0z"/>
<path d="M2015 2110 c-3 -5 -3 -15 1 -22 5 -7 3 -8 -6 -3 -10 6 -12 4 -7 -8 3
-10 2 -17 -3 -17 -6 0 -10 -5 -10 -10 0 -6 11 -3 24 5 14 10 24 25 24 40 0 26
-12 33 -23 15z"/>
<path d="M1937 2094 c-4 -4 -7 -14 -7 -23 0 -11 3 -12 11 -4 6 6 10 16 7 23
-2 6 -7 8 -11 4z"/>
<path d="M1415 2080 c3 -5 8 -10 11 -10 2 0 4 5 4 10 0 6 -5 10 -11 10 -5 0
-7 -4 -4 -10z"/>
<path d="M1362 2058 c2 -6 10 -14 16 -16 7 -2 10 2 6 12 -7 18 -28 22 -22 4z"/>
<path d="M1444 2056 c-3 -8 -12 -12 -20 -9 -20 7 -17 -6 9 -41 37 -51 60 -89
48 -82 -7 4 -11 -1 -11 -12 0 -19 2 -19 35 -4 19 9 34 19 32 22 -1 3 -18 35
-37 73 -35 68 -46 79 -56 53z m38 -71 c7 -14 4 -13 -11 5 -10 13 -17 29 -13
34 3 6 8 4 10 -4 3 -8 9 -24 14 -35z"/>
<path d="M1315 2020 c3 -5 11 -10 16 -10 6 0 7 5 4 10 -3 6 -11 10 -16 10 -6
0 -7 -4 -4 -10z"/>
<path d="M1928 1960 c-26 -40 -42 -72 -37 -76 6 -3 11 -4 13 -3 33 50 86 137
86 142 0 20 -20 -1 -62 -63z"/>
<path d="M2036 2021 c-4 -7 -5 -15 -2 -18 9 -9 19 4 14 18 -4 11 -6 11 -12 0z"/>
<path d="M1270 1981 c0 -5 5 -13 10 -16 6 -3 10 -2 10 4 0 5 -4 13 -10 16 -5
3 -10 2 -10 -4z"/>
<path d="M2080 1974 c0 -8 5 -12 10 -9 6 3 10 10 10 16 0 5 -4 9 -10 9 -5 0
-10 -7 -10 -16z"/>
<path d="M1656 1965 c-3 -8 -1 -15 4 -15 6 0 10 7 10 15 0 8 -2 15 -4 15 -2 0
-6 -7 -10 -15z"/>
<path d="M1222 1938 c2 -6 10 -14 16 -16 7 -2 10 2 6 12 -7 18 -28 22 -22 4z"/>
<path d="M2120 1935 c-8 -9 -8 -15 -2 -15 12 0 26 19 19 26 -2 2 -10 -2 -17
-11z"/>
<path d="M1195 1880 c3 -5 11 -10 16 -10 6 0 7 5 4 10 -3 6 -11 10 -16 10 -6
0 -7 -4 -4 -10z"/>
<path d="M1222 1869 c-7 -12 -12 -22 -10 -23 2 -2 19 -9 37 -16 19 -8 50 -27
68 -43 33 -29 34 -29 48 -11 19 26 18 34 -4 34 -19 0 -96 31 -98 40 -6 21 -16
40 -22 40 -3 0 -12 -9 -19 -21z m33 -9 c3 -5 2 -10 -4 -10 -5 0 -13 5 -16 10
-3 6 -2 10 4 10 5 0 13 -4 16 -10z"/>
<path d="M2155 1880 c-3 -5 -2 -10 4 -10 5 0 13 5 16 10 3 6 2 10 -4 10 -5 0
-13 -4 -16 -10z"/>
<path d="M2225 1874 c-14 -11 -16 -18 -7 -21 6 -3 10 -8 7 -13 -3 -4 1 -13 9
-19 11 -9 18 -8 30 4 18 18 13 35 -9 35 -9 0 -12 6 -9 15 8 19 4 18 -21 -1z"/>
<path d="M1165 1830 c3 -5 11 -10 16 -10 6 0 7 5 4 10 -3 6 -11 10 -16 10 -6
0 -7 -4 -4 -10z"/>
<path d="M2084 1799 c-64 -33 -69 -38 -60 -58 5 -12 12 -20 15 -19 3 2 36 19
74 38 37 19 67 37 67 40 0 4 -6 13 -12 21 -11 12 -23 10 -84 -22z m35 -13
c-10 -9 -69 -36 -69 -32 0 7 52 35 64 36 5 0 7 -2 5 -4z"/>
<path d="M2185 1830 c-3 -5 1 -10 9 -10 9 0 16 5 16 10 0 6 -4 10 -9 10 -6 0
-13 -4 -16 -10z"/>
<path d="M1135 1770 c3 -5 10 -10 16 -10 5 0 9 5 9 10 0 6 -7 10 -16 10 -8 0
-12 -4 -9 -10z"/>
<path d="M2205 1770 c-3 -5 -2 -10 4 -10 5 0 13 5 16 10 3 6 2 10 -4 10 -5 0
-13 -4 -16 -10z"/>
<path d="M1115 1720 c-3 -5 1 -10 10 -10 9 0 13 5 10 10 -3 6 -8 10 -10 10 -2
0 -7 -4 -10 -10z"/>
<path d="M2230 1720 c-13 -8 -12 -10 3 -10 9 0 17 5 17 10 0 12 -1 12 -20 0z"/>
<path d="M1100 1660 c0 -5 7 -10 16 -10 8 0 12 5 9 10 -3 6 -10 10 -16 10 -5
0 -9 -4 -9 -10z"/>
<path d="M2235 1660 c-3 -5 1 -10 9 -10 8 0 18 5 21 10 3 6 -1 10 -9 10 -8 0
-18 -4 -21 -10z"/>
<path d="M1135 1630 c-3 -5 1 -10 10 -10 9 0 13 5 10 10 -3 6 -8 10 -10 10 -2
0 -7 -4 -10 -10z"/>
<path d="M1200 1611 c-56 -5 -65 -9 -68 -27 -3 -19 3 -20 74 -23 43 -1 81 -4
86 -7 4 -3 8 3 8 14 0 16 -7 18 -62 16 -35 -1 -47 0 -28 2 74 9 100 15 100 24
0 6 -10 9 -22 8 -13 -1 -52 -4 -88 -7z"/>
<path d="M1095 1600 c3 -5 10 -10 16 -10 5 0 9 5 9 10 0 6 -7 10 -16 10 -8 0
-12 -4 -9 -10z"/>
<path d="M2245 1600 c-3 -5 1 -10 9 -10 9 0 16 5 16 10 0 6 -4 10 -9 10 -6 0
-13 -4 -16 -10z"/>
<path d="M2067 1548 c-2 -18 -4 -34 -3 -34 0 -1 38 -4 84 -8 l82 -6 0 40 0 40
-79 0 -79 0 -5 -32z"/>
<path d="M1100 1540 c0 -5 5 -10 10 -10 6 0 10 5 10 10 0 6 -4 10 -10 10 -5 0
-10 -4 -10 -10z"/>
<path d="M1300 1489 c0 -5 5 -7 10 -4 6 3 10 8 10 11 0 2 -4 4 -10 4 -5 0 -10
-5 -10 -11z"/>
<path d="M2240 1480 c0 -5 5 -10 10 -10 6 0 10 5 10 10 0 6 -4 10 -10 10 -5 0
-10 -4 -10 -10z"/>
<path d="M2210 1371 c0 -5 5 -13 10 -16 6 -3 10 -2 10 4 0 5 -4 13 -10 16 -5
3 -10 2 -10 -4z"/>
<path d="M1990 1101 c0 -5 5 -13 10 -16 6 -3 10 -2 10 4 0 5 -4 13 -10 16 -5
3 -10 2 -10 -4z"/>
<path d="M1329 1073 c-1 -5 -1 -11 0 -15 0 -5 -4 -8 -10 -8 -5 0 -7 -5 -4 -10
4 -6 16 -8 28 -5 12 2 16 2 9 -1 -15 -7 -6 -24 14 -24 8 0 13 4 9 9 -3 5 -1
12 5 16 18 11 11 27 -10 22 -11 -3 -23 0 -27 5 -3 7 -1 8 5 4 7 -4 12 -2 12 3
0 12 -29 15 -31 4z"/>
<path d="M1420 1060 c0 -5 5 -10 10 -10 6 0 10 5 10 10 0 6 -4 10 -10 10 -5 0
-10 -4 -10 -10z"/>
<path d="M1945 1060 c3 -5 8 -10 11 -10 2 0 4 5 4 10 0 6 -5 10 -11 10 -5 0
-7 -4 -4 -10z"/>
<path d="M1975 1050 c-3 -5 -2 -10 3 -10 6 0 8 -9 5 -19 -3 -12 -11 -17 -20
-14 -8 3 -12 12 -9 20 4 9 1 13 -6 11 -17 -6 -19 -21 -4 -40 12 -17 16 -17 45
-2 30 15 42 34 21 34 -5 0 -10 7 -10 15 0 17 -16 20 -25 5z"/>
<path d="M1890 1040 c0 -5 5 -10 10 -10 6 0 10 5 10 10 0 6 -4 10 -10 10 -5 0
-10 -4 -10 -10z"/>
<path d="M2880 1440 c20 -13 33 -13 25 0 -3 6 -14 10 -23 10 -15 0 -15 -2 -2
-10z"/>
<path d="M2735 1420 c-3 -5 -1 -10 5 -10 6 0 8 -6 4 -12 -4 -7 -3 -9 1 -5 12
10 15 37 5 37 -5 0 -12 -4 -15 -10z"/>
<path d="M485 1410 c-8 -13 5 -13 25 0 13 8 13 10 -2 10 -9 0 -20 -4 -23 -10z"/>
<path d="M634 1385 c1 -8 6 -18 11 -22 4 -4 5 -2 1 5 -4 6 -2 12 4 12 6 0 8 5
5 10 -9 15 -24 12 -21 -5z"/>
<path d="M2830 1326 c0 -2 8 -10 18 -17 15 -13 16 -12 3 4 -13 16 -21 21 -21
13z"/>
<path d="M2268 1253 c7 -3 16 -2 19 1 4 3 -2 6 -13 5 -11 0 -14 -3 -6 -6z"/>
<path d="M1115 1240 c-3 -5 -1 -10 4 -10 6 0 11 5 11 10 0 6 -2 10 -4 10 -3 0
-8 -4 -11 -10z"/>
<path d="M2410 1225 c-7 -8 -8 -15 -2 -15 5 0 15 7 22 15 7 8 8 15 2 15 -5 0
-15 -7 -22 -15z"/>
<path d="M2475 860 c-3 -5 -1 -10 4 -10 6 0 11 5 11 10 0 6 -2 10 -4 10 -3 0
-8 -4 -11 -10z"/>
<path d="M1503 438 c11 -10 27 -18 36 -17 10 0 7 4 -8 10 -14 5 -30 13 -36 17
-6 4 -2 -1 8 -10z"/>
<path d="M1680 330 c0 -5 5 -10 10 -10 6 0 10 5 10 10 0 6 -4 10 -10 10 -5 0
-10 -4 -10 -10z"/>
</g>
</svg>
